<svg width="20" height="20" viewBox="0 0 20 20" fill="none" xmlns="http://www.w3.org/2000/svg">
<path fill-rule="evenodd" clip-rule="evenodd" d="M10 0C4.47768 0 0 4.58929 0 10.2545C0 14.7857 2.86607 18.625 6.83929 19.9821C7.33929 20.0759 7.52232 19.7589 7.52232 19.4866C7.52232 19.2411 7.51339 18.5982 7.50893 17.7411C4.72768 18.3616 4.13839 16.3661 4.13839 16.3661C3.68304 15.183 3.02679 14.8661 3.02679 14.8661C2.12054 14.2277 3.09375 14.2411 3.09375 14.2411C4.09821 14.3125 4.625 15.2991 4.625 15.2991C5.51786 16.8661 6.96429 16.4152 7.53571 16.1518C7.625 15.4911 7.88393 15.0357 8.16964 14.7813C5.95089 14.5223 3.61607 13.6429 3.61607 9.71429C3.61607 8.59375 4.00446 7.67857 4.64286 6.96429C4.54018 6.70536 4.19643 5.66071 4.74107 4.25C4.74107 4.25 5.58036 3.97321 7.49107 5.29911C8.29018 5.07143 9.14286 4.95982 9.99554 4.95536C10.8437 4.95982 11.7009 5.07143 12.5 5.29911C14.4107 3.97321 15.2455 4.25 15.2455 4.25C15.7902 5.66071 15.4464 6.70536 15.3438 6.96429C15.9821 7.68304 16.3705 8.59821 16.3705 9.71429C16.3705 13.6518 14.0313 14.5179 11.8036 14.7723C12.1607 15.0893 12.4821 15.7143 12.4821 16.6696C12.4821 18.0402 12.4687 19.1473 12.4687 19.4821C12.4687 19.7545 12.6473 20.0759 13.1563 19.9732C17.1384 18.6205 20 14.7813 20 10.2545C20 4.58929 15.5223 0 10 0Z" fill="white"/>
</svg>
