<svg width="495" height="371" viewBox="0 0 495 371" fill="none" xmlns="http://www.w3.org/2000/svg">
<path fill-rule="evenodd" clip-rule="evenodd" d="M257.701 378.662C253.817 376.015 245.873 366.538 241.711 364.348C232.456 359.478 191.228 349.905 189.887 349.339C187.846 348.478 174.582 345.468 166.855 343.566C148.708 339.1 83.68 310.255 66.5402 302.859C64.3521 308.617 46.2887 334.034 49.3878 336.639C59.5901 345.215 77.8769 355.893 89.695 362.039C99.2536 367.009 109.378 371.122 119.598 374.481C131.202 378.294 139.167 382.383 150.732 386.284C162.11 390.122 148.513 402.126 142.669 404.606C136.115 407.388 125.963 408.8 119.267 411.212C131.057 429.537 140.959 451.778 142.94 473.729C143.417 479.012 147.444 483.856 153.994 482.274C157.374 481.458 188.562 477.304 193.647 476.144C227.597 468.402 288.542 427.858 272.848 386.284C269.252 387.944 261.043 380.94 257.701 378.662Z" fill="#FFBE0D"/>
<path fill-rule="evenodd" clip-rule="evenodd" d="M238.708 158.086C236.172 157.872 229.615 152.806 233.055 150.244C236.527 147.658 239.022 156.322 238.708 158.086ZM370.823 177.516C370.16 177.399 370.45 173.771 371.493 173.308C374.788 171.845 375.066 177.342 375.146 178.813C375.247 180.67 375.479 185.899 371.474 184.465C369.199 183.652 370.61 178.908 370.823 177.516ZM176.332 194.465C176.421 197.703 169.879 203.93 167.44 200.195C165.388 197.057 176.164 188.019 176.332 194.465ZM407.637 121.43C405.741 126.265 396.367 119.676 396.018 116.129C395.303 108.865 407.734 116.597 407.637 121.43ZM329.426 142.277C325.061 141.919 319.316 136.368 315.106 134.295C312.257 132.892 304.506 131.219 303.663 128.034C302.929 125.266 316.082 131.191 317.204 131.717C322.364 134.134 327.017 136.89 329.426 142.277ZM1.69141 104.004C-1.78821 101.313 -6.01807 99.5778 -10.4791 99.6914C-12.7067 99.7482 -17.3535 101.142 -17.5277 97.2897C-17.8123 91.0256 1.8598 98.665 4.93405 99.8937C3.85278 101.265 2.77151 102.634 1.69141 104.004ZM218.766 348.111C221.319 343.872 225.91 341.421 229.363 337.805C228.098 343.743 230.951 349.024 232.911 354.445C228.195 352.334 223.481 350.222 218.766 348.111ZM-224.544 438.48C-225.952 433.772 -227.36 429.09 -229.006 424.454C-230.846 419.263 -231.761 418.813 -227.355 415.184C-223.7 422.094 -220.043 429.004 -216.386 435.916C-218.989 437.022 -221.706 438.099 -224.544 438.48ZM153.868 97.6511C158.709 92.1945 181.397 91.8519 178.589 103.895C177.609 108.1 172.032 103.633 168.537 102.653C165.069 101.68 155.25 101.55 153.868 97.6511ZM154.7 174.905C155.287 173.513 156.458 168.487 158.197 168.09C159.891 167.704 166.575 172.976 167.832 173.781C174.1 177.797 180.209 182.117 186.317 186.375C183.978 186.375 181.855 185.542 179.53 185.524C176.768 185.501 174.787 186.635 172.094 185.988C166.307 184.599 159.591 178.187 154.7 174.905ZM148.429 50.3963C147.885 47.9004 119.52 55.3928 116.111 56.7647C114.254 57.5109 104.671 62.4921 106.73 54.9846C107.902 50.7086 118.976 47.449 122.525 46.2771C131.546 43.2993 141.058 41.1812 150.664 41.6724C152.53 41.7672 166.656 42.5824 160.757 48.2607C158.724 50.2162 151.438 49.5998 148.429 50.3963ZM142.219 393.312C136.935 395.912 131.539 397.901 126.015 399.935C123.561 400.837 119.738 403.203 117.031 402.609C114.814 402.121 114.104 398.745 112.939 396.484C108.68 388.216 103.595 381.545 97.2896 374.728C100.217 372.593 115.079 382.011 118.757 383.402C122.439 384.794 125.912 386.196 129.515 387.859C132.907 389.425 139.601 390.825 142.219 393.312ZM48.6458 322.828C40.9441 319.343 33.6436 313.162 27.3268 307.629C20.0737 301.275 13.572 294.616 8.26218 286.394C11.4576 286.557 18.5118 296.835 18.5905 285.646C18.6309 279.938 10.809 274.316 8.38126 269.021C14.4205 265.612 19.9558 285.985 26.8852 281.047C33.5603 276.288 23.0274 259.928 20.9985 254.766C24.9141 252.161 47.2227 281.32 50.4516 285.052C52.4712 287.387 57.2469 290.496 58.3868 293.221C59.0654 294.842 59.1625 299.989 58.8342 301.481C58.151 304.6 54.6909 308.336 53.1498 311.241C51.1996 314.918 49.5013 318.74 48.6458 322.828ZM-269.766 427.957C-263.105 418.556 -269.985 414.456 -275.401 406.653C-279.732 400.411 -283.718 393.531 -286.463 386.56C-293.33 369.127 -299.526 352.919 -302.917 334.477C-298.25 336.607 -295.332 344.716 -292.997 348.988C-289.858 354.732 -287.096 360.761 -283.607 366.327C-277.077 376.741 -270.666 387.85 -262.36 396.877C-258.597 400.967 -255.41 405.569 -251.068 409.256C-249.085 410.939 -245.29 412.322 -243.828 414.427C-242.449 416.415 -243.992 417.686 -243.468 420.06C-242.93 422.496 -240.466 425.094 -239.408 427.44C-238.019 430.521 -236.726 433.609 -235.176 436.622C-233.485 439.907 -233.023 441.625 -232.567 444.837C-232.069 448.348 -233.597 448.712 -230.531 451.947C-236.087 454.397 -241.643 456.847 -247.199 459.297C-249.073 460.124 -250.948 460.95 -252.824 461.777C-253.219 461.036 -253.614 460.296 -254.01 459.555C-255.536 458.072 -256.94 454.414 -257.814 452.455C-261.464 444.281 -265.587 436.075 -269.766 427.957ZM266.757 388.492C282.533 430.026 227.096 464.997 192.97 472.732C188.243 473.802 183.631 475.205 178.926 476.355C173.795 477.609 169.24 477.36 164.119 477.885C160.045 478.301 158.103 481.45 154.264 482.317C147.849 483.766 148.241 478.945 147.782 473.779C145.834 451.876 134.656 430.743 122.825 412.467C128.229 410.533 133.584 408.423 138.919 406.307C143.484 404.494 150.475 399.401 155.382 399.131C159.012 398.933 164.543 402.033 168.068 403.393C173.939 405.658 179.827 407.588 185.946 409.133C196.646 411.835 208.553 415.517 219.625 415.796C222.817 415.877 231.573 417.364 233.87 415.391C238.25 411.629 232.17 408.494 228.503 407.151C206.651 399.149 183.448 395.747 161.532 387.542C150.256 383.319 139.095 378.604 127.746 374.444C117.964 370.859 107.718 367.684 98.265 363.274C85.7808 357.452 73.2421 350.198 62.432 341.652C60.2682 339.943 55.7343 337.402 54.2513 334.924C52.9453 332.743 53.1085 334.919 53.3794 332.273C53.5739 330.373 55.8987 327.799 56.8551 326.004C60.4175 319.312 63.6373 312.437 66.3441 305.355C83.5891 312.752 99.9947 322.82 116.986 330.724C134.087 338.681 153.378 344.294 171.673 348.77C179.46 350.676 188.412 351.278 195.553 355.043C198.588 356.642 201.588 358.492 204.838 359.418C205.797 361.259 206.742 361.62 207.673 360.5C208.256 359.846 209.01 359.569 209.935 359.67C211.923 360.007 213.95 360.946 215.81 361.667C225.219 365.315 234.229 369.883 243.162 374.544C247.396 376.751 251.739 378.926 255.791 381.448C257.963 382.8 259.909 384.163 261.686 386.019C263.817 388.245 263.309 390.074 266.757 388.492ZM-88.2368 141.886C-92.2234 141.951 -95.857 139.792 -100.014 139.912C-106.552 140.101 -111.727 145.17 -115.521 150.057C-123.03 159.73 -121.115 171.397 -117.343 182.221C-115.539 187.394 -113.061 192.359 -109.965 196.887C-107.225 200.895 -102.326 204.687 -100.413 209.151C-97.2578 216.511 -103.623 213.381 -107.519 211.809C-112.419 209.831 -117.012 207.372 -121.171 204.06C-139.706 189.298 -153.806 168.779 -158.529 145.214C-160.833 133.717 -160.655 120.277 -152.646 110.893C-145.325 102.313 -132.685 99.509 -121.88 101.1C-110.201 102.821 -99.6163 107.768 -90.1061 114.136C-87.3437 115.986 -84.8144 118.006 -82.2205 120.075C-78.8177 122.79 -76.7788 122.861 -77.6303 127.116C-78.2627 130.28 -79.9854 133.557 -81.0954 136.593C-83.1736 142.278 -82.4155 143.749 -88.2368 141.886ZM-100.947 239.901L-100.141 241.279C-105.702 241.544 -110.881 236.638 -115.619 234.243C-121.775 231.131 -127.24 226.885 -132.634 222.597C-142.146 215.035 -151.783 206.513 -158.863 196.585C-174.735 174.33 -189.153 146.116 -184.821 117.9C-180.154 87.4896 -153.555 75.7837 -125.213 79.8095C-112.441 81.6234 -101.038 87.3258 -89.6074 93.1147C-83.846 96.0334 -78.9833 99.8193 -73.7047 103.484C-70.9656 105.387 -68.4663 105.634 -68.2877 108.96C-68.1529 111.467 -72.4867 117.136 -73.6586 119.408C-88.0104 104.768 -103.477 92.6558 -125.15 91.9074C-150.935 91.0171 -166.182 115.466 -166.069 138.877C-165.958 161.837 -156.056 183.922 -140.269 200.423C-133.095 207.922 -126.255 213.939 -117.446 219.412C-113.054 222.141 -109.815 224.59 -104.905 226.402C-101.432 227.684 -101.794 227.008 -100.908 230.223C-100.156 232.952 -100.924 237.067 -100.947 239.901ZM39.1594 551.837C39.4949 555.975 40.3358 560.048 41.2716 564.084C41.6082 565.533 43.5006 570.108 43.1686 571.738C42.6203 574.431 43.3502 572.7 40.9905 574.104C38.529 575.571 35.6638 575.482 32.9687 575.928C31.3053 576.203 25.2106 579.071 24.1857 578.619C22.394 577.827 22.4506 575.034 20.4842 573.928C17.8053 572.419 13.8574 573.711 11.33 574.892C4.57361 578.043 -0.0682678 584.567 -6.60605 588.138C-18.216 594.479 -31.9925 597.989 -44.9454 599.437C-51.9621 600.222 -59.143 601.599 -66.0728 599.956C-71.5326 598.66 -78.629 598.779 -81.5972 592.921C-55.2206 585.667 -14.9622 576.79 -4.53323 546.521C1.13586 551.661 10.6105 548.893 17.4618 548.183C24.9989 547.403 31.7345 547.584 38.6273 544.148C39.1317 546.85 39.2855 549.091 39.1594 551.837ZM272.694 364.365C260.278 365.116 248.507 359.24 240.866 349.326C238.985 346.884 237.056 344.392 235.927 341.499C235.682 340.766 235.438 340.032 235.193 339.299C234.008 337.275 234.527 336.319 236.749 336.433C238.001 334.716 241.176 334.139 240.273 331.026C239.593 328.678 237.083 328.64 234.901 327.901C235.988 326.076 236.637 325.16 238.193 323.536C242.234 327.172 249.568 334.307 252.408 325.955C253.772 321.946 251.371 318.113 251.966 314.246C252.211 312.646 254.239 308.56 255.414 307.603C261.673 302.508 270.689 304.616 277.33 307.616C281.907 309.683 282.891 310.654 283.638 315.393C284.397 320.213 285.1 325.029 285.941 329.835C283.195 328.404 282.694 325.312 280.903 323.085C280.232 324.307 279.562 325.53 278.888 326.751C277.943 326.221 277.06 326.249 276.241 326.836C274.916 328.874 275.75 331.895 276.157 334.032C271.738 333.619 269.87 338.55 274.325 340.547C278.941 342.616 281.022 336.976 281.179 333.323C282.901 335.38 284.67 334.279 285.87 335.336C287.07 336.393 287.542 338.595 287.969 341.007C288.67 344.97 290.465 350.688 288.805 354.664C286.339 360.568 278.479 363.641 272.694 364.365ZM-87.0978 174.706C-82.9895 180.419 -75.9845 187.898 -74.5199 194.801C-79.0448 192.146 -88.6123 179.368 -91.0773 189.547C-92.4919 195.389 -85.2351 202.351 -83.4525 208.008C-90.5887 205.66 -95.6719 198.306 -100.125 192.631C-105.802 185.395 -111.599 175.856 -113.049 166.655C-114.221 159.209 -109.055 152.27 -101.38 151.54C-97.4602 151.166 -93.367 151.789 -89.579 152.698C-87.8521 153.112 -85.2757 153.626 -83.7345 154.552C-81.7987 155.713 -81.5341 158.435 -79.7109 156.171C-77.2889 160.736 -74.8669 165.302 -72.4448 169.866C-74.8553 168.991 -79.7736 165.279 -82.408 165.663C-86.2552 166.224 -87.0456 171.812 -87.0978 174.706ZM297.575 62.9385C308.346 63.256 319.604 65.5496 329.801 68.9591C332.333 69.8065 343.015 72.8203 340.766 77.1892C339.279 80.0769 331.262 75.9963 328.838 75.3158C318.452 72.3989 307.756 70.4753 297.117 68.7198C294.541 68.2949 285.802 68.3369 285.351 64.9601C284.799 60.8398 294.534 62.9338 297.575 62.9385ZM4.44028 532.888C10.2781 533.601 15.8839 533.334 21.7276 532.619C26.6454 532.017 31.6535 530.004 36.5467 530.004C36.5467 535.242 36.9018 535.275 31.3757 536.396C27.5186 537.178 23.6064 537.618 19.7083 538.163C12.8449 539.123 5.22556 541.817 -1.7222 540.433C-1.55344 539.523 -1.0213 533.385 -0.301697 532.778C0.103821 532.437 3.85077 532.893 4.44028 532.888ZM98.7948 145.337C97.1625 146.377 93.4102 150.524 91.4653 150.598C92.1599 145.796 97.5172 137.436 103.669 140.403C105.176 141.131 108.343 144.754 106.911 146.352C106.146 147.206 100.795 145.342 98.7948 145.337ZM155.713 188.053C155.654 187.216 155.594 186.38 155.532 185.543C157.789 186.87 160.584 187.498 162.188 189.637C160.262 190.49 158.338 191.345 156.411 192.199C156.178 190.817 155.946 189.435 155.713 188.053ZM-22.0718 315.536C-32.7375 319.271 -42.5157 324.259 -50.3661 332.727C-57.1523 340.049 -60.3419 352.951 -61.998 362.549C-66.0971 386.3 -58.1877 408.315 -52.9722 431.036C-50.3268 442.563 -46.3767 453.654 -42.6786 464.882C-39.4496 474.687 -36.6806 484.955 -32.2232 494.278C-28.4442 502.183 -23.6158 509.977 -20.2909 518.178C-18.5019 522.591 -15.6023 537.735 -8.81158 532.979C-6.95905 537.824 -6.5083 537.412 -8.48914 540.777C-9.92331 543.214 -14.7864 546.596 -17.0816 548.58C-23.1974 553.868 -30.9439 558.226 -38.1183 561.929C-51.2595 568.711 -65.3459 573.785 -78.8789 579.968C-84.8618 582.704 -91.3498 585.935 -90.0069 593.762C-88.8824 600.323 -85.086 605.298 -79.1643 608.218C-73.6056 610.959 -65.6534 613.076 -59.5376 613.935C-55.9088 614.446 -55.0767 612.936 -52.1182 612.414C-48.8257 611.834 -44.983 612.955 -41.5865 612.927C-26.3385 612.794 -12.9882 608.957 -0.666412 600.115C3.73669 596.955 10.2189 588.383 15.9811 588.384C18.9269 588.384 18.3051 590.174 20.8962 591.224C24.0939 592.519 29.603 590.074 32.7464 589.5C39.4435 588.278 46.2539 587.036 50.7137 581.268C55.5352 575.034 53.8213 567.312 51.7492 560.39C49.4135 552.586 45.4843 544.669 43.8143 536.748C43.4075 534.821 43.0331 531.229 43.4457 529.268C44.0882 526.227 47.1588 524.412 47.2513 521.118C47.2802 520.116 45.846 518.795 45.5952 517.761C45.0417 515.49 45.1272 513.133 44.8995 510.821C44.4927 506.698 43.552 502.747 42.9036 498.672C41.429 489.399 38.5213 481.128 35.7061 472.193C32.9753 463.521 30.3761 457.068 25.0959 449.56C22.3627 445.671 13.219 431.817 17.6845 427.831C23.7957 439.835 30.9424 449.197 40.2953 458.754C47.4489 466.064 54.4431 475.891 63.3961 481.096C73.2401 486.821 85.2695 490.188 96.1397 493.215C101.31 494.653 105.6 497.845 111.174 498.436C117.215 499.074 123.363 498.321 129.279 496.974C130.944 496.595 135.747 494.036 137.254 494.199C139.474 494.441 142.667 498.397 145.103 499.124C151.033 500.893 155.083 497.514 159.58 494.391C164.462 491.002 165.939 490.159 171.572 489.751C178.471 489.252 185.181 486.821 191.967 485.331C203.898 482.714 214.039 477.409 224.884 471.855C237.316 465.491 247.949 456.713 257.319 446.345C271.094 431.101 290.277 388.861 267.776 374.072C281.022 372.273 293.154 366.489 294.769 351.496C295.613 343.65 294.025 334.96 292.052 327.398C291.152 323.945 290.078 320.514 289.049 317.097C288.275 315.942 287.865 314.68 287.822 313.307C287.347 311.529 288.032 310.643 289.878 310.651C293.367 306.572 295.99 302.971 296.695 297.179C296.917 295.343 297.116 292.529 295.81 290.968C295.206 290.341 294.477 289.921 293.625 289.711C291.58 289.828 291.003 288.82 291.891 286.69C290.899 283.671 292.371 281.319 288.63 280.059C287.43 280.314 286.237 280.594 285.047 280.895C283.53 281.587 282.543 281.086 282.084 279.396C278.559 278.016 280.185 275.977 275.396 277.752C272.498 278.826 269.74 280.676 267.63 282.929C264.983 281.229 271.004 270.724 271.205 267.373C271.681 259.473 268.415 252.941 264.165 246.452C255.906 233.843 244.377 222.999 233.009 213.243C211.232 194.559 188.356 176.772 163.767 161.886C173.911 154.841 185.761 152.932 197.831 156.206C208.958 159.224 217.977 164.706 228.219 169.501C237.707 173.942 247.779 175.766 250.805 163.648C254.194 150.073 243.38 145.034 233.679 138.947C236.101 137.14 244.075 138.432 247.092 138.646C253.809 139.12 260.234 140.637 266.762 141.979C269.893 142.621 272.769 142.476 275.871 143.106C280.482 144.042 285.297 145.091 289.962 146.424C301.062 149.599 312.079 154.416 321.669 160.908C329.959 166.515 335.71 174.433 342.388 181.726C350.005 190.042 357.304 198.224 368.596 201.268C373.883 202.693 380.085 203.987 383.834 199.265C387.322 194.873 387.516 189.581 387.402 184.211C387.15 172.352 381.42 159.535 374.755 149.844C367.521 139.324 357.832 133.299 348.676 124.831C361.909 125.777 374.698 132.753 386.867 137.574C389.428 138.589 392.013 139.729 394.588 140.668C397.334 141.67 399.153 141.057 401.783 141.515C407.787 142.563 412.943 145.093 418.783 141.059C429.831 133.428 418.762 117.905 411.156 113.142C400.56 106.509 389.781 100.923 378.109 96.1909C384.428 89.3368 379.031 79.5552 373.207 74.6927C365.837 68.5397 356.453 65.0139 347.573 61.7202C340.55 59.1151 333.653 56.614 326.357 55.0463C318.688 53.3989 309.72 50.8816 301.938 51.123C294.639 51.3495 288.168 50.0637 280.776 49.858C274.625 49.687 268.461 49.8349 262.312 49.6755C245.766 49.248 229.159 50.364 212.989 51.5539C225.801 14.0888 141.41 25.6588 123.406 30.5524C107.044 35.0002 88.2962 40.1596 74.5529 50.7129C68.7306 55.1826 63.2007 60.2646 58.0349 65.4795C50.4132 73.1735 46.1938 83.2497 42.1629 93.1953C31.9375 88.1861 22.1605 82.7275 10.9724 80.2437C0.326324 77.8812 -10.5786 74.6788 -21.2871 72.8939C-29.4288 71.5365 -41.2456 70.6157 -48.0976 76.3643C-55.5389 82.6085 -59.4162 92.3254 -63.8586 100.647C-85.1924 80.4043 -108.988 65.6366 -139.404 66.6185C-169.167 67.5797 -188.74 93.282 -192.348 121.134C-196.322 151.824 -182.651 183.893 -164.12 207.659C-155.811 218.317 -147.213 228.61 -136.028 236.562C-130.482 240.504 -124.631 244.822 -118.55 247.9C-115.517 249.434 -112.202 250.82 -109.018 252.001C-107.581 252.534 -106.102 253.068 -104.608 253.43C-100.341 254.465 -101.17 253.083 -99.5828 256.818C-98.2954 259.851 -98.4537 265.068 -97.9025 268.396C-97.2726 272.201 -96.8982 276.057 -95.9783 279.809C-94.3846 286.313 -92.725 292.658 -90.7292 299.01C-86.9501 311.03 -81.8652 323.145 -75.6361 334.11C-80.9187 336.404 -88.3161 336.635 -93.9616 337.331C-100.072 338.083 -106.19 339.663 -112.537 341.438C-125.254 344.994 -136.618 347.995 -148.711 353.319C-161.265 358.845 -172.454 367.097 -184.542 373.665C-195.659 379.705 -206.895 387.269 -217.219 394.52C-219.675 396.245 -221.195 397.744 -223.151 399.929C-225.151 402.161 -225.788 402.597 -228.178 404.531C-229.256 405.402 -232.391 409.799 -233.621 409.961C-235.825 410.253 -235.487 408.608 -237.217 406.312C-240.829 401.517 -245.868 397.803 -249.455 392.887C-252.447 388.789 -255.568 384.638 -258.765 381.113C-266.505 372.583 -272.918 363.128 -278.42 352.902C-281.284 347.578 -284.299 342.511 -287.409 337.487C-290.505 332.485 -296.009 325.882 -302.175 326.178C-301.679 323.631 -300.104 323.207 -302.822 321.649C-304.573 320.645 -307.981 322.263 -309.331 323.282C-312.902 325.98 -313.06 331.216 -312.835 335.149C-312.255 345.284 -310.134 355.288 -307.178 364.871C-303.625 376.391 -299.172 386.555 -294.313 397.55C-290.443 406.309 -285.639 417.892 -276.011 421.889C-282.477 431.121 -279.372 438.644 -275.051 448.445C-271.893 455.61 -267.721 463.014 -261.367 467.755C-254.204 473.101 -246.435 468.566 -238.944 465.034C-234.42 462.899 -220.584 457.863 -223.398 451.295C-219.942 450.834 -217.768 448.324 -214.622 447.551C-211.291 446.733 -211.863 448.086 -208.34 448.593C-205.638 448.981 -201.596 446.562 -199.053 445.696C-194.803 444.25 -190.567 442.768 -186.323 441.307C-174.379 437.193 -162.636 433.143 -150.575 429.847C-128.133 423.714 -105.413 420.236 -83.0497 414.76C-78.5669 413.663 -74.1094 412.603 -69.4417 411.724C-68.4778 411.543 -63.4772 411.264 -62.8694 410.233C-61.805 408.425 -65.0767 398.307 -65.3575 396.245C-67.2008 382.71 -66.5987 367.892 -64.0019 354.511C-62.9237 348.948 -58.1068 341.745 -58.1484 336.315C-58.1773 332.673 -61.4052 328.695 -63.3004 325.396C-67.9879 317.237 -72.8994 308.423 -76.3723 299.933C-81.6884 286.945 -84.945 272.285 -87.2934 258.375C-88.5161 251.123 -89.9399 243.261 -90.2727 235.926C-90.527 230.334 -90.0681 224.469 -90.8794 218.742C-87.7845 219.036 -83.4057 220.639 -80.6182 218.922C-77.0981 216.756 -76.1527 210.572 -76.6022 206.879C-64.5497 208.983 -64.9496 197.552 -65.6961 188.614C-43.9128 188.614 -71.8097 156.245 -75.2952 149.294C-76.8969 146.098 -76.8496 149.688 -76.1423 144.745C-75.8314 142.572 -74.3464 140.165 -73.5062 138.167C-71.6756 133.806 -69.6959 129.512 -67.5822 125.282C-63.1155 116.346 -58.056 107.711 -52.5342 99.3864C-47.5636 102.85 -43.0831 106.95 -38.9319 111.349C-41.5946 104.385 -49.7305 95.7577 -46.2508 87.8499C-43.0253 80.5198 -32.2533 81.0281 -25.8913 82.3682C-8.60474 86.0131 7.97455 91.3215 24.4429 97.4675C19.3418 100.393 11.5317 98.1329 6.46292 95.8963C0.186462 93.126 -6.56262 90.2194 -13.3268 88.7522C-19.2265 87.4722 -26.9741 87.9089 -25.2695 95.8547C-23.8873 102.293 -17.5901 108.493 -13.4354 113.307C-4.28015 123.914 7.19913 132.124 18.475 140.328C30.5957 149.147 42.275 158.729 54.5494 167.291C76.7372 182.772 100.594 196.226 123.518 210.676C135.43 218.184 148.929 224.226 161.847 229.791C176.058 235.913 189.683 242.467 204.428 247.301C212.615 249.987 220.731 252.197 228.776 255.253C233.82 257.167 242.602 261.004 245.934 255.319C252.701 243.772 228.211 228.586 221.5 221.526C216.871 226.023 239.701 242.777 237.914 249.324C236.51 254.469 231.08 247.826 228.457 246.423C224.22 244.157 219.201 243.018 214.942 240.432C206.206 235.128 195.849 229.012 193.854 218.049C195.242 216.584 195.225 215.233 193.802 213.993C193.169 213.24 192.666 212.413 192.296 211.51C191.675 209.788 191.425 207.63 191.092 205.803C190.109 200.404 192.577 195.348 190.271 190.064C203.733 200.265 216.674 211.788 229.454 222.831C240.917 232.736 252.878 245.706 257.09 260.486C257.63 262.38 258.527 264.529 258.429 266.527C258.237 270.451 257.845 269.605 254.684 270.866C251.522 272.128 246.919 272.019 243.519 272.153C241.581 272.229 232.926 270.177 234.647 274.429C235.639 276.881 241.639 276.788 243.787 277.015C249.179 277.584 252.103 277 249.549 282.844C248.403 285.463 246.084 287.238 244.264 289.265C239.199 294.905 236.449 303.556 232.465 310.182C227.926 317.731 222.937 324.91 217.636 331.94C215.448 334.841 212.524 340.293 209.492 342.363C206.66 344.296 209.992 344.137 205.289 343.351C203.238 343.01 201.38 341.676 199.419 341.199C187.693 338.342 175.641 335.122 163.514 331.596C148.004 327.086 131.726 323.24 116.928 316.745C103.671 310.925 90.5128 303.997 77.1174 298.103C73.2054 296.383 69.2981 295.242 66.2575 292.076C62.5871 288.255 59.5488 283.253 56.1638 279.146C50.4074 272.16 45.1017 265.054 38.905 258.434C34.2927 253.507 26.1187 244.35 19.6111 242.383C7.24649 238.649 13.8651 257.482 15.4633 262.241C12.5568 262.901 11.029 259.173 7.61743 260.245C3.53329 261.53 3.11032 266.962 2.59952 270.365C2.46429 271.272 3.69162 272.967 3.31833 273.775C3.19122 274.051 0.526215 275.627 0.0119629 276.357C-1.85446 279.011 -1.48694 282.238 -0.779663 285.099C2.87921 299.921 15.8851 310.745 25.4507 321.678C21.1712 320.868 17.9989 318.43 13.9598 317.221C10.168 316.087 6.35663 316.146 2.53482 315.821C-1.46613 315.48 -5.30988 313.983 -9.40326 313.907C-13.6989 313.827 -17.812 315.051 -22.0718 315.536Z" fill="black"/>
<path fill-rule="evenodd" clip-rule="evenodd" d="M430.321 182.215C432.679 183.757 433.344 185.269 433.426 188.826C433.458 190.285 433.358 195.727 431.319 195.522C429.406 195.329 430.321 184.086 430.321 182.215ZM442.506 191.079C441.407 179.679 437.236 168.088 427.425 160.985C424.998 159.228 422.253 159.291 419.594 158.182C417.996 157.516 415.471 154.421 413.657 154.788C406.978 156.139 414.694 165.014 415.824 167.348C419.326 174.581 419.089 180.936 418.985 188.738C418.905 194.668 417.673 204.666 420.662 210.033C423.849 215.748 430.761 212.037 434.619 208.654C439.489 204.384 443.166 197.583 442.506 191.079Z" fill="black"/>
<path fill-rule="evenodd" clip-rule="evenodd" d="M325.258 224.766C325.258 231.128 320.094 226.821 320.279 222.296C320.549 215.635 325.498 219.737 325.258 224.766ZM297.809 189.6C303.46 194.682 307.819 197.533 308.908 205.348C309.732 211.267 308.913 217.13 308.878 223.092C308.819 233.086 316.889 243.593 325.574 232.137C331.909 223.781 329.637 210.641 324.471 202.243C321.76 197.837 317.89 193.478 313.42 190.732C310.057 188.666 300.599 184.6 297.809 189.6Z" fill="black"/>
<path fill-rule="evenodd" clip-rule="evenodd" d="M376.726 343.629C377.381 345.179 378.919 351.507 375.781 350.076C373.011 348.811 374.805 344.617 376.726 343.629ZM393.306 324.091C393.79 321.711 393.593 306.793 389.484 307.911C386.256 308.789 385.723 316.425 384.408 319.083C379.512 328.979 368.273 335.143 364.398 345.357C360.072 356.764 373.151 357.119 380.09 352.499C388.307 347.029 393.062 333.636 393.306 324.091Z" fill="black"/>
<path fill-rule="evenodd" clip-rule="evenodd" d="M403.38 262.922C401.596 260.514 401.416 259.228 402.432 257.098C403.732 258.511 403.501 260.531 403.38 262.922ZM402.089 273.693C411.386 274.734 411.851 257.601 410.259 251.718C408.991 247.034 406.265 242 403.459 238.182C402.893 237.412 397.517 230.49 396.464 230.473C392.421 230.41 393.532 234.978 393.968 236.679C395.341 242.037 395.886 246.515 395.516 252.456C395.119 258.813 392.11 273.904 402.089 273.693Z" fill="black"/>
<path fill-rule="evenodd" clip-rule="evenodd" d="M-20.0273 125.319C-6.73395 136.467 5.88651 148.537 20.341 158.288C27.4142 163.06 34.8082 167.282 41.8663 172.132C45.4611 174.603 49.129 176.814 53.1166 178.63C56.6392 180.234 58.9427 180.443 56.0197 176.635C54.0661 174.092 49.6869 172.319 47.0254 170.511C42.9298 167.727 39.0619 164.638 34.7536 162.168C27.1585 157.81 19.6099 154.293 12.6088 148.949C6.3944 144.208 -0.0163803 139.578 -5.94715 134.539C-8.49007 132.378 -16.9231 122.457 -20.0273 125.319Z" fill="black"/>
<path fill-rule="evenodd" clip-rule="evenodd" d="M-20.2962 165.574C-26.2742 170.688 -11.3167 184.698 -7.90525 187.873C-4.30851 191.221 -0.346924 194.208 3.56498 197.175C4.942 198.22 12.4552 205.212 14.362 204.647C18.1248 203.533 13.1849 198.997 11.9005 197.814C7.74575 193.984 3.50283 190.266 -0.55932 186.333C-4.22271 182.788 -8.18995 179.506 -11.7325 175.846C-14.6029 172.882 -17.0135 167.859 -20.2962 165.574Z" fill="black"/>
<path fill-rule="evenodd" clip-rule="evenodd" d="M422.614 371.715C424.175 368.098 426.97 372.114 425.553 373.92C424.213 375.63 422.813 372.41 422.614 371.715ZM431.766 364.573C430.929 359.255 428.995 356.299 424.006 360.838C420.578 363.958 413.683 372.828 414.337 377.664C415.196 384.007 422.182 382.207 425.803 378.89C429.515 375.491 431.154 369.289 431.766 364.573Z" fill="black"/>
<path fill-rule="evenodd" clip-rule="evenodd" d="M342.508 319.5C346.21 317.782 349.648 315.714 351.136 311.61C352.084 308.996 352.879 301.159 348.674 301.195C343.81 301.239 332.673 318.715 342.508 319.5Z" fill="black"/>
<path fill-rule="evenodd" clip-rule="evenodd" d="M368.466 237.963C363.508 237.873 362.334 240.607 361.645 244.536C361.177 247.202 358.906 256.252 361.265 258.105C364.634 260.755 369.995 254.685 371.078 252.302C373.312 247.396 370.224 242.571 368.466 237.963Z" fill="black"/>
<path fill-rule="evenodd" clip-rule="evenodd" d="M442.31 262.512C440.661 266.643 438.804 280.832 447.49 273.17C450.141 270.831 450.541 267.911 449.627 264.7C448.307 260.047 446.385 260.97 442.31 262.512Z" fill="black"/>
<path fill-rule="evenodd" clip-rule="evenodd" d="M214.49 42.4336C214.566 44.0996 214.643 45.7656 214.721 47.4258C214.646 45.7584 214.568 44.0953 214.49 42.4336Z" fill="black"/>
<path fill-rule="evenodd" clip-rule="evenodd" d="M270.352 49.3835C271.738 49.4651 273.125 49.5466 274.512 49.6282C273.125 49.5466 271.738 49.4651 270.352 49.3835Z" fill="black"/>
<path fill-rule="evenodd" clip-rule="evenodd" d="M236.238 49.6473C237.348 49.5533 238.458 49.4584 239.566 49.3644C238.458 49.4584 237.349 49.5533 236.238 49.6473Z" fill="black"/>
<path fill-rule="evenodd" clip-rule="evenodd" d="M217.934 50.9659C219.043 51.3795 220.152 51.6241 221.262 50.9718C220.152 50.9701 219.043 50.9676 217.934 50.9659Z" fill="black"/>
<path fill-rule="evenodd" clip-rule="evenodd" d="M316.945 53.2442C318.333 53.5262 319.719 53.8083 321.105 54.0878C319.718 53.8083 318.332 53.5262 316.945 53.2442Z" fill="black"/>
<path fill-rule="evenodd" clip-rule="evenodd" d="M393.1 324.492C393.083 325.048 393.067 325.604 393.052 326.156C393.07 325.599 393.084 325.046 393.1 324.492Z" fill="black"/>
<path fill-rule="evenodd" clip-rule="evenodd" d="M2.81528 270.41C2.84107 269.577 2.86689 268.744 2.89185 267.914C2.86689 268.747 2.84107 269.579 2.81528 270.41Z" fill="black"/>
<path fill-rule="evenodd" clip-rule="evenodd" d="M266.191 49.6594C267.024 49.557 267.856 49.4547 268.688 49.3524C267.856 49.4547 267.024 49.557 266.191 49.6594Z" fill="black"/>
<path fill-rule="evenodd" clip-rule="evenodd" d="M129.738 29.0832C130.57 28.8311 131.403 28.579 132.234 28.3269C131.402 28.579 130.57 28.8311 129.738 29.0832Z" fill="black"/>
<path fill-rule="evenodd" clip-rule="evenodd" d="M412.629 143.492C411.794 143.514 410.958 143.536 410.133 143.559C410.972 143.536 411.801 143.514 412.629 143.492Z" fill="black"/>
<path fill-rule="evenodd" clip-rule="evenodd" d="M292.816 63.2294C294.763 63.2327 296.706 63.236 298.641 63.2394C296.691 63.236 294.754 63.2327 292.816 63.2294Z" fill="black"/>
<path fill-rule="evenodd" clip-rule="evenodd" d="M276.176 364.124C275.066 364.329 273.956 364.532 272.848 364.735C273.957 364.532 275.066 364.329 276.176 364.124Z" fill="black"/>
<path fill-rule="evenodd" clip-rule="evenodd" d="M103.113 145.193C101.729 144.013 100.342 144.141 98.9531 145.18C100.34 145.183 101.726 145.188 103.113 145.193Z" fill="black"/>
<path fill-rule="evenodd" clip-rule="evenodd" d="M155.176 187.207C155.136 186.652 155.097 186.097 155.055 185.543C155.093 186.099 155.134 186.653 155.176 187.207Z" fill="black"/>
<path fill-rule="evenodd" clip-rule="evenodd" d="M280.099 345.319C278.274 345.938 274.602 347.807 272.475 347.56C270.772 347.36 269.368 345.291 267.726 345.293C263.304 345.299 264.123 350.411 266.26 353.155C272.039 360.578 284.951 352.529 280.099 345.319Z" fill="black"/>
<path fill-rule="evenodd" clip-rule="evenodd" d="M262.05 318.668C256.02 320.225 259.023 333.49 264.093 334.402C270.062 335.476 271.102 324.69 269.923 320.792C266.851 322.617 268.753 329.128 264.882 327.329C262.42 326.183 262.794 320.886 262.05 318.668Z" fill="black"/>
</svg>
