<svg width="703" height="661" viewBox="0 0 703 661" fill="none" xmlns="http://www.w3.org/2000/svg">
<path fill-rule="evenodd" clip-rule="evenodd" d="M338.354 40.7581C341.449 48.9491 344.542 57.1411 347.637 65.3321C349.621 70.5811 351.603 75.8291 353.586 81.0781C354.29 82.9391 354.681 84.8481 356.041 86.1401C359.247 89.1821 365.001 91.1181 368.854 93.2581C371.435 94.6921 374.017 96.1261 376.598 97.5601C377.929 98.3001 380.88 99.2291 381.813 100.457C382.839 101.81 382.354 104.295 382.354 106.166V122.32V152.758C369.021 151.091 355.687 149.425 342.354 147.758C360.118 168.255 377.881 188.751 395.645 209.248C400.023 214.299 405.338 219.161 408.6 225.038C415.542 237.548 422.328 250.148 429.19 262.702C435.578 274.387 441.966 286.073 448.354 297.758L390.885 295.312C376.006 294.679 360.721 295.631 346.385 291.414C334.567 287.938 322.75 284.463 310.932 280.987C309.36 280.524 304.464 280.001 303.35 278.736C302.307 277.551 302.329 273.074 302.034 271.558C296.456 242.888 289.355 211.294 273.075 186.615C261.403 168.924 245.653 153.435 231.229 138.008C225.599 131.987 219.871 126.038 214.441 119.834C213.05 118.245 211.041 116.442 210.121 114.512C209.527 113.265 208.697 110.889 209.066 109.782C209.226 109.302 212.937 107.58 213.469 107.238C217.23 104.821 220.958 102.353 224.694 99.8971C235.192 92.9951 245.68 86.0761 256.238 79.2661C264.469 73.9561 272.677 68.3261 281.359 63.7631C290.358 59.0331 300.269 55.7041 309.704 51.9671C319.238 48.1901 328.79 44.4561 338.354 40.7581Z" fill="#FFBE0D"/>
<path fill-rule="evenodd" clip-rule="evenodd" d="M14.7625 478.342C19.3405 482.656 27.6775 488.446 34.2675 485.813C37.5775 484.491 40.4044 481.588 43.4194 479.716C46.9614 477.516 50.2914 475.315 53.2944 472.383C59.2854 466.531 63.8215 457.982 70.8975 453.401C73.2755 451.861 77.9174 451.531 79.5674 449.072C80.3064 447.969 80.3754 446.296 80.2394 445.021C79.9434 442.275 78.4605 442.437 80.9385 440.421H77.0895C77.0155 438.934 78.4995 438.811 79.6055 439.003C79.0915 436.646 78.5675 427.423 82.8635 431.603C86.5875 435.226 84.7245 441.237 87.3615 445.161C89.3805 448.166 94.7385 445.733 95.4615 442.427C95.7865 440.942 94.1504 438.623 93.9554 437.167C93.5274 433.938 94.9695 431.146 97.0635 428.701C101.657 431.762 99.0534 438.097 101.671 442.119C104.04 445.758 109.316 444.06 112.923 443.42C117.247 442.652 122.136 443.429 126.273 442.408C132.52 440.866 130.187 433.532 130.805 428.798C131.468 423.727 136.593 416.689 135.053 411.573C133.399 406.08 123.73 404.893 119.108 403.56C108.545 400.513 93.4785 399.927 85.6255 391.397C79.3795 398.363 74.3554 406.339 67.8044 413.045C60.7284 420.288 53.1704 426.975 46.3774 434.51C39.3074 442.352 32.0095 450.043 25.1965 458.112C22.2235 461.632 19.6135 465.425 16.5385 468.861C13.8045 471.915 10.9225 474.725 14.7625 478.342ZM328.725 342.869C325.479 341.143 325.066 342.225 325.067 345.78C326.001 344.073 326.928 343.616 328.725 342.869ZM356.245 411.975V405.709C353.116 405.627 355.04 410.987 356.245 411.975ZM357.01 421.307C357.01 418.532 357.085 415.89 356.285 413.191C355.865 416.132 355.063 418.678 357.01 421.307ZM343.556 611.929C340.682 612.198 336.253 610.218 333.836 612.473C331.353 614.79 331.552 621.534 330.964 624.664C329.992 629.837 329.131 635.027 328.312 640.225C327.775 643.633 327.111 647.094 330.964 648.398C336.658 650.324 344.794 647.575 350.729 647.325C362.453 646.832 374.172 646.146 385.906 645.908C397.279 645.678 408.678 645.86 419.999 647.043C425.113 647.577 430.114 648.521 435.176 649.375C437.844 649.826 444.993 651.711 447.403 649.462C451.937 645.228 444.399 635.343 441.157 632.551C435.14 627.37 426.583 623.634 419.038 621.384C415.006 620.181 408.284 616.804 405.108 620.581C402.671 623.478 402.768 627.345 399.276 629.54C391.185 634.626 395.919 620.037 400.975 618.241C397.58 610.295 391.109 621.514 388.425 624.209C387.47 625.168 384.364 628.33 383.015 626.74C382.005 625.55 384.022 621.286 384.396 620.126C384.964 618.364 386.401 615.684 385.988 613.773C385.24 610.315 380.39 609.373 377.485 609.085C372.98 608.639 368.561 610.067 364.107 610.544C357.277 611.276 350.394 611.287 343.556 611.929ZM388.788 286.218C397.681 286.926 406.63 285.566 415.502 286.679C423.896 287.733 431.806 290.815 439.719 293.646C427.955 266.055 412.735 240.938 394.184 217.409C384.946 205.69 375.01 194.052 365.028 182.961C360.383 177.801 355.579 172.812 350.783 167.797C346.505 163.323 343.44 155.725 338.306 152.384C333.924 149.532 326.266 151.566 321.41 151.743C315.921 151.943 309.241 152.442 303.888 150.615C300.009 149.291 298.942 145.758 303.798 145.641C309.525 145.502 315.158 146.099 320.96 145.562C335.993 144.173 350.484 141.89 365.639 143.185C369.111 143.481 373.681 144.96 377.088 144.516C379.538 144.195 377.927 145.427 379.63 143.461C380.282 142.709 381.068 140.941 381.261 139.942C382.346 134.331 379.265 126.313 378.528 120.664C377.846 115.436 378.45 109.69 377.174 104.599C376.012 99.9661 372.47 99.3481 368.108 98.8531C356.175 97.4981 343.997 96.7771 332.01 95.7561C304.654 93.4261 276.429 89.9111 249.259 95.6691C239.448 97.7481 227.485 100.963 218.721 106.111C215.98 107.72 213.215 109.615 214.212 112.949C215.246 116.41 220.316 120.066 222.827 122.346C241.386 139.194 259.311 156.379 272.348 177.997C288.974 205.564 298.515 235.337 304.113 266.926C305.317 273.722 306.435 277.279 313.427 279.235C320.933 281.336 328.178 282.701 335.961 283.34C353.555 284.785 371.203 284.815 388.788 286.218ZM382.829 103.658C384.177 113.693 386.002 123.706 386.182 133.82C386.25 137.64 386.612 139.554 390.674 140.406C395.463 141.41 400.332 142.158 405.143 143.2C428.362 148.232 451.142 154.412 473.858 161.368C495.935 168.13 517.649 175.737 540.222 180.746C549.932 182.901 561.294 184.353 570.138 189.124C579.652 194.258 578.4 202.675 579.254 211.92C580.395 224.272 584.058 236.232 585.346 248.579C585.962 254.479 586.523 260.414 586.43 266.351C586.351 271.412 585.626 277.008 589.028 281.267C595.853 272.143 599.088 260.667 600.433 249.484C601.087 244.048 600.828 238.568 601.015 233.107C601.166 228.71 601.068 221.716 603.932 218.044C610.158 210.064 618.255 242.044 619.025 245.459C620.32 251.207 621.388 257.003 622.678 262.752C623.25 265.3 623.984 274.563 627.398 275.486C634.473 277.4 632.92 257.519 633.032 254.492C633.256 248.382 633.408 242.265 633.265 236.15C633.161 231.736 632.307 226.946 632.814 222.53C634.059 211.687 640.156 223.111 641.87 227.147C646.201 237.336 648.16 248.242 652.044 258.594C652.69 260.316 654.208 266.113 656.613 266.221C659.289 266.34 659.268 260.353 659.421 258.604C660.309 248.465 663.308 238.397 662.403 228.153C661.489 217.809 657.863 207.175 652.732 198.178C641.884 179.156 622.294 168.234 603.53 158.285C582.056 146.901 559.385 137.907 536.23 130.58C508.382 121.768 479.788 114.638 451.022 109.564C436.387 106.983 421.526 105.137 406.741 103.657C401.545 103.137 396.347 102.833 391.218 101.844C389.282 101.47 382.297 99.6931 382.829 103.658ZM367.87 71.1831C375.207 71.2411 382.702 67.6841 389.85 66.2141C398.36 64.4621 406.671 61.9271 415.166 60.0981C431.801 56.5171 448.445 53.0251 465.065 49.3651C472.28 47.7761 479.53 46.3931 486.717 44.6861C494.406 42.8601 502.713 40.8241 510.583 42.7911C522.512 45.7731 527.551 58.8241 531.931 69.0091C535.025 76.2031 537.449 84.2221 542.274 90.4821C543.992 92.7141 546.434 95.3761 549.549 94.6531C555.336 93.3111 554.417 85.6531 553.68 81.4201C552.612 75.2771 551.099 69.2061 549.888 63.0911C549.4 60.6231 545.618 44.4701 552.37 46.9711C557.379 48.8261 560.029 61.0441 561.925 65.4081C563.334 68.6511 564.827 71.8731 566.408 75.0361C568.518 79.2551 574.538 93.3521 581.203 91.5341C590.741 88.9321 581.592 63.8571 579.967 58.5721C579.075 55.6711 569.38 33.6701 577.563 35.4681C581.048 36.2351 584.443 42.7081 586.22 45.3911C589.371 50.1501 592.512 54.9431 595.478 59.8191C598.529 64.8341 600.087 70.5421 603.113 75.4841C604.705 78.0851 607.954 81.5511 611.126 79.1431C616.071 75.3921 613.14 62.3441 612.274 57.4101C610.663 48.2371 606.661 38.8331 601.17 31.3341C592.919 20.0661 577.35 16.4251 564.258 14.2361C547.359 11.4101 530.225 12.1831 513.255 13.8551C494.17 15.7361 475.376 17.7501 456.564 21.5961C437.605 25.4721 418.636 29.3171 399.969 34.4431C391.175 36.8581 382.255 38.9991 373.586 41.8341C364.37 44.8471 355.376 48.5971 345.903 50.7681C349.235 59.0831 352.568 67.3981 355.9 75.7141C359.089 72.5591 363.442 71.1471 367.87 71.1831ZM204.547 94.0961C201.625 92.4981 198.397 91.7441 197.331 88.2121C196.388 85.0911 197.999 81.5551 198.769 78.5591C200.923 70.1711 201.49 61.4821 199.584 52.9951C197.762 55.7761 190.942 66.4731 186.794 59.9971C184.292 56.0911 190.996 50.4721 192.953 47.7261C188.659 45.0761 182.526 37.9641 177.578 42.2531C174.38 45.0261 173.026 47.6961 168.717 49.0441C163.486 50.6811 158.561 50.3061 153.219 49.8541C149.479 49.5381 148.578 49.0391 147.117 51.9191C145.97 54.1831 145.377 56.9851 144.707 59.4161C143.387 64.2091 140.33 73.6531 143.95 78.1431C147.121 82.0761 159.427 78.7041 161.136 83.7811C162.068 86.5501 157.62 86.6491 155.92 88.0191C153.815 89.7151 152.074 92.4141 150.93 94.8251C150.083 96.6081 148.795 99.5541 150.237 101.377C152.229 103.899 155.921 101.986 157.527 100.153C159.659 97.7181 160.351 94.3891 162.13 91.7371C165.395 86.8711 165.59 90.7421 166.479 94.2361C167.402 97.8661 169.586 97.6161 172.931 98.0821C178.8 98.9011 184.731 100.056 190.444 101.629C193.372 102.435 196.21 103.462 198.999 104.662C200.796 105.434 203.911 107.773 205.861 107.795C209.474 107.836 211.979 101.793 213.844 99.2721C210.747 97.5431 207.659 95.7981 204.547 94.0961ZM10.5184 464.119C19.5424 453.287 27.3574 441.519 36.2604 430.592C45.0414 419.815 55.2005 410.392 65.0555 400.631C69.7065 396.024 74.1624 390.97 79.2964 386.888C83.1264 383.842 86.0735 383.795 90.6805 385.144C103.77 388.978 117.099 393.593 129.487 399.314C141.022 404.642 151.529 411.483 164.039 414.454C176.808 417.487 190.085 418.461 203.172 417.709C216.596 416.938 229.257 414.145 242.023 410.04C254.113 406.152 266.719 402.757 277.059 395.051C287.899 386.973 296.274 375.354 304.034 364.426C307.963 358.894 311.863 353.084 314.51 346.814C316.807 341.373 318.308 334.951 322.43 330.516C323.441 331.949 324.699 333.178 325.213 334.861C325.447 335.626 324.069 335.602 324.21 336.21C324.477 337.355 326.001 338.523 326.887 339.146C330.07 341.386 330.089 339.603 329.254 343.792C328.768 346.234 329.688 351.743 333.67 349.943C332.204 351.698 334.533 353.913 335.294 355.359C335.817 354.758 336.468 354.549 337.246 354.73C335.79 357.63 336.65 357.707 338.061 360.01C338.319 360.431 339.232 362.634 339.101 362.448C340.543 364.502 342.209 365.019 343.05 367.577C343.741 369.678 343.564 371.988 344.334 374.086C345.265 372.799 346.196 371.512 347.127 370.226C346.937 371.238 346.557 372.736 346.115 373.654C345.837 374.228 344.645 375.568 344.661 375.881C344.726 377.051 346.186 376.77 346.602 377.779C347.383 379.672 346.254 379.951 346.68 381.798C347.168 383.918 348.478 383.07 349.101 384.877C349.219 385.22 348.299 386.57 348.445 387.31C348.65 388.356 349.598 388.941 349.933 389.871C350.785 392.237 350.475 393.969 351.658 396.238C352.116 397.118 352.783 397.704 353.106 398.704C353.389 399.584 352.78 401.457 353.326 402.245C355.964 406.044 355.593 399.5 355.393 397.877C353.714 384.25 348.327 370.186 343.397 357.449C340.947 351.121 338.562 344.595 335.491 338.534C334.255 336.093 332.828 333.574 330.785 331.707C328.201 329.345 324.535 328.4 322.195 325.762C322.564 326.178 319.658 323.428 320.123 324.332C319.707 323.524 320.433 322.43 320.175 321.648C319.854 320.677 319.247 320.473 318.571 319.623C317.356 318.097 315.913 317.337 317.821 315.393C314.989 314.767 313.635 313.848 313.069 310.815C312.656 308.596 313.49 308.741 312.034 307.262C310.573 305.776 309.833 306.936 308.912 304.363C307.811 301.284 307.08 297.097 306.42 293.875C305.844 291.062 307.242 286.925 304.871 284.939C301.868 282.424 299.181 283.489 299.719 278.431C300.244 273.5 298.712 270.513 297.172 265.847C294.099 256.532 292.911 246.697 290.217 237.271C284.466 217.155 274.307 199.018 263.383 181.311C253.289 164.949 239.177 151.009 225.55 137.584C221.819 133.907 218.129 130.177 214.779 126.146C211.893 122.675 210.575 117.949 207.801 114.654C206.116 112.653 202.979 111.797 200.626 110.736C196.702 108.966 192.026 106.657 187.597 107.015C189.357 112.948 189.931 119.881 184.737 124.33C178.436 129.727 172.725 124.12 166.949 121.043C156.421 115.434 141.364 120.583 132.184 112.176C129.997 110.174 129.387 106.975 127.115 105.105C125.447 103.734 123.074 103.386 121.196 102.364C115.491 99.2591 112.722 93.5751 114.943 87.2961C116.973 81.5561 120.128 79.5651 113.106 76.6561C107.406 74.2961 105.239 70.7401 107.819 64.4091C110.279 58.3731 114.785 57.6781 119.049 53.7281C123.179 49.9021 118.435 45.4491 115.341 42.5771C111.351 38.8721 110.588 35.5331 115.214 31.6801C120.058 27.6461 126.973 27.7871 132.62 29.7821C139.006 32.0371 143.213 35.7861 145.915 41.8611C148.667 48.0461 155.488 46.3201 161.012 44.5961C166.295 42.9481 167.67 39.3921 171.139 35.5631C174.997 31.3041 182.86 34.9461 187.41 36.8921C198.618 41.6821 209.756 49.2421 210.201 62.6331C210.466 70.6181 207.089 77.4051 205.333 84.9001C203.727 91.7541 214.738 91.2141 216.645 97.8441C236.986 87.0761 259.639 83.7811 282.377 83.0481C306.544 82.2681 331.059 81.6431 355.02 85.4551C349.458 75.7651 346.521 65.1391 341.682 55.1841C340.289 52.3181 339.689 52.5631 336.615 53.4291C330.71 55.0921 324.849 56.9531 318.956 58.6661C297.428 64.9241 276.323 72.4641 255.507 80.7221C253.484 81.5251 248.967 83.7541 247.194 81.3301C245.148 78.5351 249.881 75.0891 251.797 73.6831C260.179 67.5341 270.566 63.8021 279.953 59.4881C300.476 50.0591 323.202 45.5831 344.616 38.5801C390.845 23.4591 438.671 11.9751 486.713 4.3901C498.437 2.5391 510.286 2.2681 522.061 0.894099C532.491 -0.322901 542.94 -0.294901 553.369 0.962099C572.631 3.2851 594.962 8.2971 605.841 25.9291C615.662 41.8491 622.218 59.7481 619.712 78.6321C618.959 84.3041 616.557 91.0211 609.558 89.5591C604.703 88.5451 602.125 84.4201 599.871 80.3941C596.465 74.3121 593.101 68.2301 589.41 62.3111C588.041 71.1861 593.016 79.9131 592.234 88.9541C591.702 95.0891 588.312 104.782 580.347 103.045C569.43 100.665 564.937 83.6101 559.688 75.4281C559.422 81.7301 561.631 87.9411 560.955 94.2571C560.288 100.496 555.413 106.386 548.566 105.531C542.108 104.725 537.911 97.8061 535.168 92.5971C531.351 85.3481 528.609 77.5761 524.881 70.2791C521.387 63.4391 517.248 55.2961 508.906 54.0111C501.461 52.8631 492.929 55.5201 485.575 56.6161C465.176 59.6561 445.188 64.8321 425.012 69.0141C403.379 73.4971 381.235 76.2201 360.269 83.4541C367.641 93.4881 386.933 91.3201 397.915 92.3971C414.511 94.0251 431.32 95.2501 447.822 97.6521C464.12 100.024 480.077 104.235 496.248 107.292C512.334 110.333 528.392 113.379 543.957 118.565C572.856 128.194 602.237 140.38 627.699 157.181C639.546 164.999 650.07 173.934 657.388 186.274C664.753 198.691 668.292 212.732 669.642 227.015C670.482 235.909 669.055 243.606 667.332 252.262C666.084 258.529 665.68 269.022 660.655 273.611C651.064 282.37 643.101 246.842 641.33 242.551C640.055 249.583 642.14 289.199 626.751 285.977C619.883 284.54 618.325 275.113 617.186 269.435C615.108 259.084 613.247 248.525 609.693 238.556C607.412 251.988 606.461 265.982 601.547 278.811C598.283 287.331 588.97 302.449 582.477 287.863C577.607 276.924 579.278 264.369 578.694 252.755C578.047 239.885 574.352 227.471 573.044 214.727C572.537 209.79 572.996 204.226 568.035 201.532C563.776 199.22 557.548 198.467 552.898 197.176C539.125 193.352 525.262 189.837 511.554 185.78C497.84 181.72 484.316 176.977 470.785 172.348C457.844 167.921 444.631 165.404 431.533 161.613C424.086 159.457 416.729 157.202 409.178 155.402C405.664 154.565 402.107 153.913 398.601 153.046C396.002 152.404 392.578 149.981 389.906 150.024C387.156 150.069 386.122 152.397 382.969 152.58C379.574 152.776 376.122 152.027 372.746 151.768C364.521 151.137 355.778 150.117 347.572 151.257C352.504 157.107 359.165 161.151 365.003 165.997C371.736 171.586 378.252 177.621 384.003 184.221C395.575 197.501 406.512 211.538 416.673 225.925C426.696 240.118 434.766 255.649 441.782 271.517C445.278 279.424 448.672 287.504 451.087 295.815C452.079 299.229 452.889 302.656 454.68 305.761C456.323 308.609 458.638 311.064 456.696 314.503C455.359 313.666 454.158 312.626 452.949 311.621C454.346 321.462 457.361 330.982 458.911 340.793C460.439 350.459 460.377 360.4 460.278 370.162C460.07 390.606 458.55 410.587 454.403 430.64C450.209 450.917 444.821 471.04 438.027 490.601C431.487 509.435 424.924 529.186 415.795 546.937C406.045 565.897 394.446 585.831 380.333 601.88C389.552 605.656 401.284 604.95 411.046 606.471C421.25 608.061 430.077 611.062 438.773 616.708C447.571 622.422 452.347 629.778 453.563 640.196C454.427 647.611 456.994 657.877 447.266 659.825C440.269 661.226 432.447 658.925 425.436 658.356C413.172 657.362 400.89 656.741 388.599 656.205C376.34 655.67 364.078 655.199 351.815 654.819C346.047 654.64 340.276 654.55 334.51 654.343C331.926 654.251 330.359 654.211 328.042 654.958C326.21 655.549 326.344 656.776 324.304 655.259C321.014 652.812 321.691 645.097 321.783 641.705C321.923 636.47 322.419 631.175 323.44 626.039C324.046 622.987 331.402 603.314 325.682 602.486C332.327 595.184 334.981 584.757 337.966 575.605C341.706 564.139 344.989 552.705 347.566 540.912C353.071 515.721 355.504 490.255 355.504 464.48C329.986 480.209 302.987 488.729 272.931 489.679C243.049 490.624 210.22 488.17 181.845 478.229C168.705 473.625 156.935 467.579 145.669 459.434C141.631 456.515 137.305 449.903 132.005 450.016C125.68 450.152 118.597 452.546 112.316 453.57C100.304 455.528 84.6265 456.633 74.4565 464.063C68.9325 468.099 64.9735 473.748 60.0435 478.398C56.2935 481.936 51.3345 483.857 47.6125 487.395C43.5965 491.212 45.1915 496.199 38.5325 496.508C32.8405 496.771 26.5995 494.481 21.6905 491.793C11.8965 486.43 1.46643 474.983 10.5184 464.119Z" fill="white"/>
<path fill-rule="evenodd" clip-rule="evenodd" d="M104.655 209.031C90.3223 219.212 73.8823 226.167 58.9043 235.336C55.1553 237.631 43.4753 242.396 43.5883 246.653C43.6543 249.142 47.1643 252.263 48.7013 253.988C51.3343 256.943 53.8113 259.929 56.2413 263.055C67.3633 277.37 77.8373 291.82 89.8913 305.416C91.7063 307.461 97.1733 317.226 98.9383 312.376C99.7383 310.177 99.0793 307.706 101.164 305.656C102.237 304.6 106.384 304.018 105.176 301.753C104.371 302.115 103.565 302.478 102.759 302.839C103.385 301.029 103.339 299.046 104.277 297.335C104.86 296.272 105.999 295.769 106.394 294.572C106.94 292.918 106.014 290.996 106.169 289.291C106.322 287.591 107.203 285.984 107.729 284.38C110.848 274.872 111.967 265.287 113.564 255.477C115.144 245.77 117.605 236.367 118.571 226.552C119.592 216.185 120.843 205.839 122.512 195.555C119.533 195.973 117.243 199.21 115.136 201.04C111.824 203.916 108.228 206.493 104.655 209.031ZM115.891 309.398C116.575 308.861 117.11 308.201 117.496 307.419C110.471 303.939 114.71 309.876 115.891 309.398ZM120.163 301.976C123.225 302.82 125.425 302.991 127.786 301.731C128.01 301.612 127.752 300.691 128.156 300.502C128.509 300.338 129.048 300.541 129.35 300.387C130.378 299.864 132.178 301.01 132.353 299.008C128.445 297.812 124.602 295.605 120.476 295.233C114.742 294.717 115.007 300.554 120.163 301.976ZM133.579 290.436C137.757 291.413 141.199 293.695 145.638 293.099C149.805 292.541 153.426 290.38 156.713 287.89C148.49 285.562 139.867 285.142 131.651 282.89C128.976 282.157 125.461 280.224 122.578 281.003C119.375 281.869 119.173 284.869 118.213 287.599C123.339 288.521 128.504 289.25 133.579 290.436ZM159.71 278.852C163.724 279.811 167.827 281.908 171.183 278.289C171.725 277.705 172.199 278.288 172.135 276.489C172.068 274.592 170.346 273.37 168.865 272.702C165.383 271.132 160.502 272.147 156.804 271.916C150.905 271.549 144.901 270.323 139.066 269.379C135.026 268.726 130.853 267.276 126.724 267.562C123.536 267.783 119.69 270.5 124.336 272.482C128.567 274.288 134.911 274.011 139.495 274.793C146.271 275.949 153.023 277.254 159.71 278.852ZM163.631 259.968C163.371 260.233 163.111 260.498 162.851 260.763C162.894 260.753 161.312 259.472 160.893 259.435C158.858 259.258 156.811 259.398 154.773 259.283C150.077 259.018 145.344 258.2 140.732 257.299C136.975 256.565 133.148 255.3 129.281 255.617C125.933 255.891 125.581 256.577 125.362 259.808C133.908 259.808 142.711 259.628 151.11 261.437C156.578 262.614 162.604 266.12 165.343 259.8C164.772 259.856 164.202 259.912 163.631 259.968ZM158.288 246.289C156.169 247.903 150.392 245.219 147.852 244.951C145.094 244.659 142.499 244.356 139.826 243.669C137.456 243.059 129.615 240.013 127.797 242.926C125.01 247.389 136.295 248.208 138.084 248.429C145.587 249.356 153.372 250.178 160.673 252.146C159.878 250.194 159.083 248.242 158.288 246.289ZM147.996 231.13C147.448 233.193 130.48 225.591 130.171 231.116C129.933 235.355 146.959 237.467 150.02 237.095C149.303 235.143 147.396 233.395 147.996 231.13ZM142.299 218.163C141.938 214.002 141.38 214.026 138.043 213.634C135.498 213.335 132 211.843 132.662 216.379C133.229 220.263 142.662 222.362 142.299 218.163ZM136.234 203.846C135.431 201.612 133.624 204.619 133.586 205.755C133.485 208.778 135.777 208.124 137.983 208.124C137.369 206.712 136.785 205.284 136.234 203.846ZM108.307 187.077C108.757 186.535 111.283 186.328 112.002 186.065C113.77 185.417 113.519 184.036 115.781 185.398C115.894 185.284 115.679 184.26 115.802 184.213C115.864 184.189 117.449 183.591 117.964 183.261C119.207 182.465 120.327 181.686 121.469 180.687C122.683 179.626 123.899 178.086 125.286 177.241C125.871 176.885 126.349 176.38 127.054 176.271C128.883 175.989 128.359 177.263 129.958 177.516C130.943 177.672 131.66 176.522 132.948 177.018C134.061 177.446 134.707 179.007 135.203 179.936C137.006 183.317 138.397 186.956 140.162 190.373C149.188 207.846 159.447 224.656 168.19 242.292C172.401 250.788 176.795 259.343 179.759 268.372C181.896 274.884 186.722 284.397 182.57 290.904C179.551 295.635 173.506 297.678 168.683 299.964C161.426 303.404 154.736 307.9 147.399 311.235C138.65 315.212 130.154 319.372 121.626 323.813C117.989 325.707 114.707 328.435 111.082 330.229C108.865 331.326 105.441 329.454 104.719 331.969C101.94 328.603 97.4423 330.847 94.2273 328.477C92.3363 327.083 90.9543 324.337 89.3773 322.62C87.0113 320.046 84.4433 317.658 82.0293 315.129C72.4483 305.084 63.6012 294.622 54.8842 283.833C46.5582 273.53 36.8312 263.796 29.7982 252.518C27.0052 248.041 26.4993 243.346 28.3423 238.4C29.6883 234.792 32.9302 229.344 37.5612 231.733C35.8052 228.817 42.5792 225.703 44.6342 225.133C44.6652 225.125 45.0703 227.365 45.6433 227.309C45.4393 227.329 47.3653 222.346 48.2113 221.707C50.7233 219.806 53.7793 217.588 56.5203 216.023C59.0343 214.588 61.6873 213.877 64.1223 212.271C67.0743 210.325 69.7843 208.017 72.7473 206.084C75.6083 204.218 78.7973 202.012 81.9593 200.729C84.7013 199.616 87.1633 199.398 89.6303 197.574C92.6823 195.317 95.3443 193.786 98.8643 192.231C101.909 190.886 106.129 189.711 108.307 187.077Z" fill="white"/>
<path fill-rule="evenodd" clip-rule="evenodd" d="M523.964 457.32C523.404 456.005 522.846 454.69 522.286 453.376C521.594 455.668 521.4 456.808 523.964 457.32ZM523.219 463.394C524.432 463.611 523.954 459.806 523.954 459.143C521.859 460.329 523.594 461.751 523.219 463.394ZM525.11 452.417C524.076 451.806 523.042 451.196 522.008 450.585C523.448 453.253 522.883 451.586 522.289 453.368C523.375 453.68 524.431 453.316 525.11 452.417ZM531.238 473.269C535.114 487.332 547.425 498.423 560.428 504.168C567.9 507.468 575.246 508.294 583.315 507.926C586.427 507.784 590.089 506.773 593.084 506.961C595.39 507.106 595.286 507.206 597.196 509.158C598.041 507.602 597.429 506.51 599.124 505.604C601.239 504.474 602.117 505.79 603.166 507.355C604.539 505.932 605.101 505.189 606.88 504.344C606.824 504.371 608.583 504.304 608.511 504.326C608.829 504.228 610.742 502.998 611.341 502.774C613.799 501.852 616.641 501.473 618.909 500.15C620.893 498.995 622.527 495.752 624.797 498.244C624.799 494.08 630.408 492.353 633.037 490.172C637.145 486.764 640.411 481.718 642.459 476.837C644.643 471.632 645.372 466.642 646.394 461.278C647.108 457.53 651.784 452.112 648.976 448.33C648.307 449.916 648.621 451.54 647.51 452.978C646.51 451.051 645.96 448.895 645.508 446.786C645.286 445.753 644 442.721 644.146 441.821C644.443 439.979 646.723 439.879 645.459 437.621C642.837 440.474 640.721 435.464 642.702 433.467C643.68 434.57 644.039 435.823 644.49 437.189C647.068 431.985 639.933 433.661 641.494 428.963C638.89 428.462 637.393 427.806 636.403 425.233C635.302 422.37 636.112 421.746 633.612 419.854C632.752 419.204 630.32 418.269 629.875 417.199C629.014 415.132 631.205 414.519 629.286 412.582C628.638 413.719 626.112 415.97 624.729 413.828C624.452 413.401 625.615 413.098 624.769 412.114C623.516 410.658 622.114 409.23 619.995 409.536C621.673 405.341 610.951 405.009 608.205 404.019C605.453 403.028 603.118 402.377 600.2 402.147C597.285 401.917 597.14 401.063 594.672 399.308C594.463 401.819 593.859 401.267 592.074 401.71C591.645 400.974 591.205 400.891 590.755 401.462C590.307 401.888 589.759 402.088 589.113 402.064C588.133 402.115 587.021 401.987 585.994 402.008C583.583 402.055 581.096 401.854 578.731 401.905C578.121 401.803 577.551 401.591 577.017 401.268C576.794 401.688 576.57 402.109 576.348 402.53C575.095 402.687 574.998 404.257 573.457 402.54C573.001 404.723 571.691 403.587 570.307 404.179C569.045 404.72 568.844 405.584 567.679 406.187C566.913 406.808 566.092 406.89 565.214 406.435C564.379 407.054 563.531 407.655 562.671 408.238C561.086 409.133 559.218 409.681 557.548 410.388C556.437 410.846 555.333 411.323 554.238 411.817C554.205 413.139 553.612 413.606 552.46 413.217C551.419 414.088 551.126 414.054 550.116 415.537C547.828 418.898 545.798 421.509 542.908 424.513C530.347 437.573 526.488 456.037 531.238 473.269ZM527.383 417.735C533.054 410.141 541.081 401.445 548.294 396.649C551.95 394.217 557.082 389.852 561.553 388.566C562.613 388.261 563.71 388.241 564.752 387.921C565.557 387.674 565.995 386.848 566.913 386.699C567.555 386.595 567.626 388.032 568.308 387.9C569.734 387.622 570.638 386.207 571.645 385.322C573.808 389.049 574.982 382.781 578.158 386.995C581.938 381.068 590.818 382.364 596.854 382.663C598.644 382.751 599.485 383.388 601.072 383.86C602.549 384.299 602.695 384.186 604.308 384.174C608.325 384.143 611.891 384.648 615.604 386.412C621.842 389.375 627.568 393.992 633.493 397.563C640.115 401.554 646.084 406.634 651.15 412.471C669.464 433.577 674.361 464.384 659.758 488.852C636.563 527.713 576.732 531.866 542.829 505.498C516.636 485.125 506.668 445.469 527.383 417.735Z" fill="white"/>
<path fill-rule="evenodd" clip-rule="evenodd" d="M240.294 308.378C240.945 309.931 247.024 309.408 247.157 307.577C247.355 304.841 239.163 305.679 240.294 308.378ZM233.837 307.362C230.392 307.642 224.732 309.982 221.412 308.568C216.345 306.41 221.666 303.098 224.384 302.108C227.15 301.101 231.27 301.636 232.692 298.744C233.762 296.569 231.118 290.497 234.398 291.473C237.84 292.497 236.839 301.195 242.24 298.263C244.816 296.864 243.765 288.342 248.08 292.696C249.261 293.887 249.364 296.073 250.928 296.961C252.524 297.868 254.526 296.924 256.211 297.003C260.672 297.212 262.093 301.385 257.573 303.04C255.9 303.653 249.594 304.401 253.414 307.135C255.821 308.857 261.168 305.243 263.235 308.241C266.076 312.359 258.466 312.452 256.422 313.684C252.958 315.77 255.819 320.642 255.543 324.112C255.12 329.414 252.04 328.306 250.921 323.819C249.972 320.013 251.148 314.533 245.409 316.046C236.063 318.51 250.606 330.375 243.76 333.411C239.395 335.347 238.777 324.882 238.438 323.08C237.183 316.429 233.447 317.981 227.787 318.185C221.175 318.423 219.579 313.532 226.581 312.131C228.815 311.684 231.888 312.249 233.828 310.826C234.976 309.985 236.554 307.142 233.837 307.362Z" fill="white"/>
<path fill-rule="evenodd" clip-rule="evenodd" d="M477.962 524.656C483.313 522.74 492.265 523.154 493.589 530.065C494.143 532.958 493.064 536.018 491.066 538.12C488.749 540.557 485.059 540.783 485.256 536.539C485.393 533.602 488.188 531.051 483.274 530.459C480.216 530.091 475.693 532.378 475.541 535.756C475.197 543.37 488.377 543.967 493.234 542.65C502.874 540.038 500.255 529.941 493.635 525.333C491.925 524.142 487.018 522.308 486.794 519.835C486.496 516.555 490.552 517.225 492.54 517.657C507.153 520.838 510.338 545.318 495.069 549.933C488.135 552.028 478.37 549.865 474.191 543.585C470.273 537.697 470.22 527.428 477.962 524.656Z" fill="white"/>
<path fill-rule="evenodd" clip-rule="evenodd" d="M671.716 351.36C676.284 353.559 680.852 355.758 685.419 357.957C686.929 354.726 689.48 345.899 693.31 344.772C699.51 342.947 695.562 352.569 694.492 354.769C693.613 356.576 691.574 359.376 692.069 361.53C692.733 364.432 696.827 365.46 698.97 366.957C704.273 370.663 704.231 378.446 696.551 375.148C692.205 373.281 686.824 368.104 683.493 373.982C681.955 376.694 678.311 391.846 674.505 381.937C672.15 375.802 683.485 369.428 677.897 364.238C676.098 362.568 673.992 362.427 672.195 361.467C667.855 359.148 670.302 354.863 671.716 351.36Z" fill="white"/>
<path fill-rule="evenodd" clip-rule="evenodd" d="M2.02921 131.82C4.75221 130.824 8.12122 128.879 11.1482 129.542C14.3652 130.246 15.6602 133.468 17.9992 135.405C24.3582 140.672 28.0622 132.822 31.5562 128.52C34.8562 124.458 38.8822 123.472 43.5382 125.968C45.3932 126.963 53.2082 131.522 51.8452 134.443C50.8652 136.545 47.0042 134.658 45.6872 134.199C42.8282 133.204 40.1732 132.333 37.2492 133.784C31.7642 136.504 30.3412 143.963 23.7052 145.126C16.8432 146.329 16.6182 139.799 11.7212 137.341C8.43822 135.694 6.15122 138.61 2.98422 138.029C-0.0337775 137.476 -1.42979 133.084 2.02921 131.82Z" fill="white"/>
<path fill-rule="evenodd" clip-rule="evenodd" d="M57.4284 158.137C55.0014 158.664 53.4174 153.957 51.8984 152.763C49.3784 150.784 45.0094 150.385 42.4434 152.377C37.4324 156.265 39.1594 164.659 32.0244 166.847C25.6474 168.803 22.6434 160.404 17.2754 158.313C14.1544 157.097 10.7284 156.301 11.9464 151.938C12.7874 148.921 15.2654 148.146 17.9594 149.305C22.5894 151.295 24.1614 159.402 29.6504 159.547C35.3294 159.697 35.9454 151.51 38.3834 147.944C42.1004 142.509 49.7414 141.196 54.0834 146.393C55.3944 147.961 62.0504 157.136 57.4284 158.137Z" fill="white"/>
<path fill-rule="evenodd" clip-rule="evenodd" d="M169.685 65.3265C166.309 67.6365 159.581 67.5565 156.471 64.6915C153.306 61.7765 157.531 61.3285 160.109 61.4175C162.092 61.4865 165.804 62.4695 164.674 59.0445C163.671 56.0055 158.158 57.5525 157.698 54.2165C161.847 53.4725 166.417 53.7405 169.486 57.0015C171.705 59.3585 172.845 63.1635 169.685 65.3265Z" fill="white"/>
</svg>
