<svg width="703" height="660" viewBox="0 0 703 660" fill="none" xmlns="http://www.w3.org/2000/svg">
<path fill-rule="evenodd" clip-rule="evenodd" d="M338.682 40.7581C341.777 48.9491 344.87 57.1411 347.965 65.3321C349.949 70.5811 351.931 75.8291 353.914 81.0781C354.618 82.9391 355.009 84.8481 356.369 86.1401C359.575 89.1821 365.329 91.1181 369.182 93.2581C371.763 94.6921 374.345 96.1261 376.926 97.5601C378.257 98.3001 381.208 99.2291 382.141 100.457C383.167 101.81 382.682 104.295 382.682 106.166V122.32V152.758C369.349 151.091 356.015 149.425 342.682 147.758C360.446 168.255 378.209 188.751 395.973 209.248C400.351 214.299 405.666 219.161 408.928 225.038C415.87 237.548 422.656 250.148 429.518 262.702C435.906 274.387 442.294 286.073 448.682 297.758L391.213 295.312C376.334 294.679 361.049 295.631 346.713 291.414C334.895 287.938 323.078 284.463 311.26 280.987C309.688 280.524 304.792 280.001 303.678 278.736C302.635 277.551 302.657 273.074 302.362 271.558C296.784 242.888 289.683 211.294 273.403 186.615C261.731 168.924 245.981 153.435 231.557 138.008C225.927 131.987 220.199 126.038 214.769 119.834C213.378 118.245 211.369 116.442 210.449 114.512C209.855 113.265 209.025 110.889 209.394 109.782C209.554 109.302 213.265 107.58 213.797 107.238C217.558 104.821 221.286 102.353 225.022 99.8971C235.52 92.9951 246.008 86.0761 256.566 79.2661C264.797 73.9561 273.005 68.3261 281.687 63.7631C290.686 59.0331 300.597 55.7041 310.032 51.9671C319.566 48.1901 329.118 44.4561 338.682 40.7581Z" fill="#FFBE0D"/>
<path fill-rule="evenodd" clip-rule="evenodd" d="M15.0897 478.342C19.6677 482.656 28.0047 488.446 34.5947 485.813C37.9047 484.491 40.7317 481.588 43.7467 479.716C47.2887 477.516 50.6187 475.315 53.6217 472.383C59.6127 466.531 64.1487 457.982 71.2247 453.401C73.6027 451.861 78.2447 451.531 79.8947 449.072C80.6337 447.969 80.7027 446.296 80.5667 445.021C80.2707 442.275 78.7877 442.437 81.2657 440.421H77.4167C77.3428 438.934 78.8267 438.811 79.9327 439.003C79.4188 436.646 78.8947 427.423 83.1907 431.603C86.9147 435.226 85.0517 441.237 87.6887 445.161C89.7077 448.166 95.0657 445.733 95.7888 442.427C96.1138 440.942 94.4777 438.623 94.2827 437.167C93.8547 433.938 95.2968 431.146 97.3907 428.701C101.985 431.762 99.3807 438.097 101.999 442.119C104.368 445.758 109.644 444.06 113.251 443.42C117.575 442.652 122.464 443.429 126.601 442.408C132.848 440.866 130.515 433.532 131.133 428.798C131.796 423.727 136.921 416.689 135.381 411.573C133.727 406.08 124.058 404.893 119.436 403.56C108.873 400.513 93.8058 399.927 85.9528 391.397C79.7068 398.363 74.6827 406.339 68.1317 413.045C61.0557 420.288 53.4977 426.975 46.7047 434.51C39.6347 442.352 32.3367 450.043 25.5237 458.112C22.5507 461.632 19.9407 465.425 16.8657 468.861C14.1317 471.915 11.2497 474.725 15.0897 478.342ZM329.053 342.869C325.807 341.143 325.394 342.225 325.395 345.78C326.329 344.073 327.256 343.616 329.053 342.869ZM356.573 411.975V405.709C353.444 405.627 355.368 410.987 356.573 411.975ZM357.338 421.307C357.338 418.532 357.413 415.89 356.613 413.191C356.193 416.132 355.391 418.678 357.338 421.307ZM343.884 611.929C341.01 612.198 336.581 610.218 334.164 612.473C331.681 614.79 331.88 621.534 331.292 624.664C330.32 629.837 329.459 635.027 328.64 640.225C328.103 643.633 327.439 647.094 331.292 648.398C336.986 650.324 345.122 647.575 351.057 647.325C362.781 646.832 374.5 646.146 386.234 645.908C397.607 645.678 409.006 645.86 420.327 647.043C425.441 647.577 430.442 648.521 435.504 649.375C438.172 649.826 445.321 651.711 447.731 649.462C452.265 645.228 444.727 635.343 441.485 632.551C435.468 627.37 426.911 623.634 419.366 621.384C415.334 620.181 408.612 616.804 405.436 620.581C402.999 623.478 403.096 627.345 399.604 629.54C391.513 634.626 396.247 620.037 401.303 618.241C397.908 610.295 391.437 621.514 388.753 624.209C387.798 625.168 384.692 628.33 383.343 626.74C382.333 625.55 384.35 621.286 384.724 620.126C385.292 618.364 386.729 615.684 386.316 613.773C385.568 610.315 380.718 609.373 377.813 609.085C373.308 608.639 368.889 610.067 364.435 610.544C357.605 611.276 350.722 611.287 343.884 611.929ZM389.116 286.218C398.009 286.926 406.958 285.566 415.83 286.679C424.224 287.733 432.134 290.815 440.047 293.646C428.283 266.055 413.063 240.938 394.512 217.409C385.274 205.69 375.338 194.052 365.356 182.961C360.711 177.801 355.907 172.812 351.111 167.797C346.833 163.323 343.768 155.725 338.634 152.384C334.252 149.532 326.594 151.566 321.738 151.743C316.249 151.943 309.569 152.442 304.216 150.615C300.337 149.291 299.27 145.758 304.126 145.641C309.853 145.502 315.486 146.099 321.288 145.562C336.321 144.173 350.812 141.89 365.967 143.185C369.439 143.481 374.009 144.96 377.416 144.516C379.866 144.195 378.255 145.427 379.958 143.461C380.61 142.709 381.396 140.941 381.589 139.942C382.674 134.331 379.593 126.313 378.856 120.664C378.174 115.436 378.778 109.69 377.502 104.599C376.34 99.9661 372.798 99.3481 368.436 98.8531C356.503 97.4981 344.325 96.7771 332.338 95.7561C304.982 93.4261 276.757 89.9111 249.587 95.6691C239.776 97.7481 227.813 100.963 219.049 106.111C216.308 107.72 213.543 109.615 214.54 112.949C215.574 116.41 220.644 120.066 223.155 122.346C241.714 139.194 259.639 156.379 272.676 177.997C289.302 205.564 298.843 235.337 304.441 266.926C305.645 273.722 306.763 277.279 313.755 279.235C321.261 281.336 328.506 282.701 336.289 283.34C353.883 284.785 371.531 284.815 389.116 286.218ZM383.157 103.658C384.505 113.693 386.33 123.706 386.51 133.82C386.578 137.64 386.94 139.554 391.002 140.406C395.791 141.41 400.66 142.158 405.471 143.2C428.69 148.232 451.47 154.412 474.186 161.368C496.263 168.13 517.977 175.737 540.55 180.746C550.26 182.901 561.622 184.353 570.466 189.124C579.98 194.258 578.728 202.675 579.582 211.92C580.723 224.272 584.386 236.232 585.674 248.579C586.29 254.479 586.851 260.414 586.758 266.351C586.679 271.412 585.954 277.008 589.356 281.267C596.181 272.143 599.416 260.667 600.761 249.484C601.415 244.048 601.156 238.568 601.343 233.107C601.494 228.71 601.396 221.716 604.26 218.044C610.486 210.064 618.583 242.044 619.353 245.459C620.648 251.207 621.716 257.003 623.006 262.752C623.578 265.3 624.312 274.563 627.726 275.486C634.801 277.4 633.248 257.519 633.36 254.492C633.584 248.382 633.736 242.265 633.593 236.15C633.489 231.736 632.635 226.946 633.142 222.53C634.387 211.687 640.484 223.111 642.198 227.147C646.529 237.336 648.488 248.242 652.372 258.594C653.018 260.316 654.536 266.113 656.941 266.221C659.617 266.34 659.596 260.353 659.749 258.604C660.637 248.465 663.636 238.397 662.731 228.153C661.817 217.809 658.191 207.175 653.06 198.178C642.212 179.156 622.622 168.234 603.858 158.285C582.384 146.901 559.713 137.907 536.558 130.58C508.71 121.768 480.116 114.638 451.35 109.564C436.715 106.983 421.854 105.137 407.069 103.657C401.873 103.137 396.675 102.833 391.546 101.844C389.61 101.47 382.625 99.6931 383.157 103.658ZM368.198 71.1831C375.535 71.2411 383.03 67.6841 390.178 66.2141C398.688 64.4621 406.999 61.9271 415.494 60.0981C432.129 56.5171 448.773 53.0251 465.393 49.3651C472.608 47.7761 479.858 46.3931 487.045 44.6861C494.734 42.8601 503.041 40.8241 510.911 42.7911C522.84 45.7731 527.879 58.8241 532.259 69.0091C535.353 76.2031 537.777 84.2221 542.602 90.4821C544.32 92.7141 546.762 95.3761 549.877 94.6531C555.664 93.3111 554.745 85.6531 554.008 81.4201C552.94 75.2771 551.427 69.2061 550.216 63.0911C549.728 60.6231 545.946 44.4701 552.698 46.9711C557.707 48.8261 560.357 61.0441 562.253 65.4081C563.662 68.6511 565.155 71.8731 566.736 75.0361C568.846 79.2551 574.866 93.3521 581.531 91.5341C591.069 88.9321 581.92 63.8571 580.295 58.5721C579.403 55.6711 569.708 33.6701 577.891 35.4681C581.376 36.2351 584.771 42.7081 586.548 45.3911C589.699 50.1501 592.84 54.9431 595.806 59.8191C598.857 64.8341 600.415 70.5421 603.441 75.4841C605.033 78.0851 608.282 81.5511 611.454 79.1431C616.399 75.3921 613.468 62.3441 612.602 57.4101C610.991 48.2371 606.989 38.8331 601.498 31.3341C593.247 20.0661 577.678 16.4251 564.586 14.2361C547.687 11.4101 530.553 12.1831 513.583 13.8551C494.498 15.7361 475.704 17.7501 456.892 21.5961C437.933 25.4721 418.964 29.3171 400.297 34.4431C391.503 36.8581 382.583 38.9991 373.914 41.8341C364.698 44.8471 355.704 48.5971 346.231 50.7681C349.563 59.0831 352.896 67.3981 356.228 75.7141C359.417 72.5591 363.77 71.1471 368.198 71.1831ZM204.875 94.0961C201.953 92.4981 198.725 91.7441 197.659 88.2121C196.716 85.0911 198.327 81.5551 199.097 78.5591C201.251 70.1711 201.818 61.4821 199.912 52.9951C198.09 55.7761 191.27 66.4731 187.122 59.9971C184.62 56.0911 191.324 50.4721 193.281 47.7261C188.987 45.0761 182.854 37.9641 177.906 42.2531C174.708 45.0261 173.354 47.6961 169.045 49.0441C163.814 50.6811 158.889 50.3061 153.547 49.8541C149.807 49.5381 148.906 49.0391 147.445 51.9191C146.298 54.1831 145.705 56.9851 145.035 59.4161C143.715 64.2091 140.658 73.6531 144.278 78.1431C147.449 82.0761 159.755 78.7041 161.464 83.7811C162.396 86.5501 157.948 86.6491 156.248 88.0191C154.143 89.7151 152.402 92.4141 151.258 94.8251C150.411 96.6081 149.123 99.5541 150.565 101.377C152.557 103.899 156.249 101.986 157.855 100.153C159.987 97.7181 160.679 94.3891 162.458 91.7371C165.723 86.8711 165.918 90.7421 166.807 94.2361C167.73 97.8661 169.914 97.6161 173.259 98.0821C179.128 98.9011 185.059 100.056 190.772 101.629C193.7 102.435 196.538 103.462 199.327 104.662C201.124 105.434 204.239 107.773 206.189 107.795C209.802 107.836 212.307 101.793 214.172 99.2721C211.075 97.5431 207.987 95.7981 204.875 94.0961ZM10.8457 464.119C19.8697 453.287 27.6847 441.519 36.5877 430.592C45.3687 419.815 55.5278 410.392 65.3828 400.631C70.0338 396.024 74.4897 390.97 79.6237 386.888C83.4537 383.842 86.4008 383.795 91.0078 385.144C104.098 388.978 117.427 393.593 129.815 399.314C141.35 404.642 151.857 411.483 164.367 414.454C177.136 417.487 190.413 418.461 203.5 417.709C216.924 416.938 229.585 414.145 242.351 410.04C254.441 406.152 267.047 402.757 277.387 395.051C288.227 386.973 296.602 375.354 304.362 364.426C308.291 358.894 312.191 353.084 314.838 346.814C317.135 341.373 318.636 334.951 322.758 330.516C323.769 331.949 325.027 333.178 325.541 334.861C325.775 335.626 324.397 335.602 324.538 336.21C324.805 337.355 326.329 338.523 327.215 339.146C330.398 341.386 330.417 339.603 329.582 343.792C329.096 346.234 330.016 351.743 333.998 349.943C332.532 351.698 334.861 353.913 335.622 355.359C336.145 354.758 336.796 354.549 337.574 354.73C336.118 357.63 336.978 357.707 338.389 360.01C338.647 360.431 339.56 362.634 339.429 362.448C340.871 364.502 342.537 365.019 343.378 367.577C344.069 369.678 343.892 371.988 344.662 374.086C345.593 372.799 346.524 371.512 347.455 370.226C347.265 371.238 346.885 372.736 346.443 373.654C346.165 374.228 344.973 375.568 344.989 375.881C345.054 377.051 346.514 376.77 346.93 377.779C347.711 379.672 346.582 379.951 347.008 381.798C347.496 383.918 348.806 383.07 349.429 384.877C349.547 385.22 348.627 386.57 348.773 387.31C348.978 388.356 349.926 388.941 350.261 389.871C351.113 392.237 350.803 393.969 351.986 396.238C352.444 397.118 353.111 397.704 353.434 398.704C353.717 399.584 353.108 401.457 353.654 402.245C356.292 406.044 355.921 399.5 355.721 397.877C354.042 384.25 348.655 370.186 343.725 357.449C341.275 351.121 338.89 344.595 335.819 338.534C334.583 336.093 333.156 333.574 331.113 331.707C328.529 329.345 324.863 328.4 322.523 325.762C322.892 326.178 319.986 323.428 320.451 324.332C320.035 323.524 320.761 322.43 320.503 321.648C320.182 320.677 319.575 320.473 318.899 319.623C317.684 318.097 316.241 317.337 318.149 315.393C315.317 314.767 313.963 313.848 313.397 310.815C312.984 308.596 313.818 308.741 312.362 307.262C310.901 305.776 310.161 306.936 309.24 304.363C308.139 301.284 307.408 297.097 306.748 293.875C306.172 291.062 307.57 286.925 305.199 284.939C302.196 282.424 299.509 283.489 300.047 278.431C300.572 273.5 299.04 270.513 297.5 265.847C294.427 256.532 293.239 246.697 290.545 237.271C284.794 217.155 274.635 199.018 263.711 181.311C253.617 164.949 239.505 151.009 225.878 137.584C222.147 133.907 218.457 130.177 215.107 126.146C212.221 122.675 210.903 117.949 208.129 114.654C206.444 112.653 203.307 111.797 200.954 110.736C197.03 108.966 192.354 106.657 187.925 107.015C189.685 112.948 190.259 119.881 185.065 124.33C178.764 129.727 173.053 124.12 167.277 121.043C156.749 115.434 141.692 120.583 132.512 112.176C130.325 110.174 129.715 106.975 127.443 105.105C125.775 103.734 123.402 103.386 121.524 102.364C115.819 99.2591 113.05 93.5751 115.271 87.2961C117.301 81.5561 120.456 79.5651 113.434 76.6561C107.734 74.2961 105.567 70.7401 108.147 64.4091C110.607 58.3731 115.113 57.6781 119.377 53.7281C123.507 49.9021 118.763 45.4491 115.669 42.5771C111.679 38.8721 110.916 35.5331 115.542 31.6801C120.386 27.6461 127.301 27.7871 132.948 29.7821C139.334 32.0371 143.541 35.7861 146.243 41.8611C148.995 48.0461 155.816 46.3201 161.34 44.5961C166.623 42.9481 167.998 39.3921 171.467 35.5631C175.325 31.3041 183.188 34.9461 187.738 36.8921C198.946 41.6821 210.084 49.2421 210.529 62.6331C210.794 70.6181 207.417 77.4051 205.661 84.9001C204.055 91.7541 215.066 91.2141 216.973 97.8441C237.314 87.0761 259.967 83.7811 282.705 83.0481C306.872 82.2681 331.387 81.6431 355.348 85.4551C349.786 75.7651 346.849 65.1391 342.01 55.1841C340.617 52.3181 340.017 52.5631 336.943 53.4291C331.038 55.0921 325.177 56.9531 319.284 58.6661C297.756 64.9241 276.651 72.4641 255.835 80.7221C253.812 81.5251 249.295 83.7541 247.522 81.3301C245.476 78.5351 250.209 75.0891 252.125 73.6831C260.507 67.5341 270.894 63.8021 280.281 59.4881C300.804 50.0591 323.53 45.5831 344.944 38.5801C391.173 23.4591 438.999 11.9751 487.041 4.3901C498.765 2.5391 510.614 2.2681 522.389 0.894099C532.819 -0.322901 543.268 -0.294901 553.697 0.962099C572.959 3.2851 595.29 8.2971 606.169 25.9291C615.99 41.8491 622.546 59.7481 620.04 78.6321C619.287 84.3041 616.885 91.0211 609.886 89.5591C605.031 88.5451 602.453 84.4201 600.199 80.3941C596.793 74.3121 593.429 68.2301 589.738 62.3111C588.369 71.1861 593.344 79.9131 592.562 88.9541C592.03 95.0891 588.64 104.782 580.675 103.045C569.758 100.665 565.265 83.6101 560.016 75.4281C559.75 81.7301 561.959 87.9411 561.283 94.2571C560.616 100.496 555.741 106.386 548.894 105.531C542.436 104.725 538.239 97.8061 535.496 92.5971C531.679 85.3481 528.937 77.5761 525.209 70.2791C521.715 63.4391 517.576 55.2961 509.234 54.0111C501.789 52.8631 493.257 55.5201 485.903 56.6161C465.504 59.6561 445.516 64.8321 425.34 69.0141C403.707 73.4971 381.563 76.2201 360.597 83.4541C367.969 93.4881 387.261 91.3201 398.243 92.3971C414.839 94.0251 431.648 95.2501 448.15 97.6521C464.448 100.024 480.405 104.235 496.576 107.292C512.662 110.333 528.72 113.379 544.285 118.565C573.184 128.194 602.565 140.38 628.027 157.181C639.874 164.999 650.398 173.934 657.716 186.274C665.081 198.691 668.62 212.732 669.97 227.015C670.81 235.909 669.383 243.606 667.66 252.262C666.412 258.529 666.008 269.022 660.983 273.611C651.392 282.37 643.429 246.842 641.658 242.551C640.383 249.583 642.468 289.199 627.079 285.977C620.211 284.54 618.653 275.113 617.514 269.435C615.436 259.084 613.575 248.525 610.021 238.556C607.74 251.988 606.789 265.982 601.875 278.811C598.611 287.331 589.298 302.449 582.805 287.863C577.935 276.924 579.606 264.369 579.022 252.755C578.375 239.885 574.68 227.471 573.372 214.727C572.865 209.79 573.324 204.226 568.363 201.532C564.104 199.22 557.876 198.467 553.226 197.176C539.453 193.352 525.59 189.837 511.882 185.78C498.168 181.72 484.644 176.977 471.113 172.348C458.172 167.921 444.959 165.404 431.861 161.613C424.414 159.457 417.057 157.202 409.506 155.402C405.992 154.565 402.435 153.913 398.929 153.046C396.33 152.404 392.906 149.981 390.234 150.024C387.484 150.069 386.45 152.397 383.297 152.58C379.902 152.776 376.45 152.027 373.074 151.768C364.849 151.137 356.106 150.117 347.9 151.257C352.832 157.107 359.493 161.151 365.331 165.997C372.064 171.586 378.58 177.621 384.331 184.221C395.903 197.501 406.84 211.538 417.001 225.925C427.024 240.118 435.094 255.649 442.11 271.517C445.606 279.424 449 287.504 451.415 295.815C452.407 299.229 453.217 302.656 455.008 305.761C456.651 308.609 458.966 311.064 457.024 314.503C455.687 313.666 454.486 312.626 453.277 311.621C454.674 321.462 457.689 330.982 459.239 340.793C460.767 350.459 460.705 360.4 460.606 370.162C460.398 390.606 458.878 410.587 454.731 430.64C450.537 450.917 445.149 471.04 438.355 490.601C431.815 509.435 425.252 529.186 416.123 546.937C406.373 565.897 394.774 585.831 380.661 601.88C389.88 605.656 401.612 604.95 411.374 606.471C421.578 608.061 430.405 611.062 439.101 616.708C447.899 622.422 452.675 629.778 453.891 640.196C454.755 647.611 457.322 657.877 447.594 659.825C440.597 661.226 432.775 658.925 425.764 658.356C413.5 657.362 401.218 656.741 388.927 656.205C376.668 655.67 364.406 655.199 352.143 654.819C346.375 654.64 340.604 654.55 334.838 654.343C332.254 654.251 330.687 654.211 328.37 654.958C326.538 655.549 326.672 656.776 324.632 655.259C321.342 652.812 322.019 645.097 322.111 641.705C322.251 636.47 322.747 631.175 323.768 626.039C324.374 622.987 331.73 603.314 326.01 602.486C332.655 595.184 335.309 584.757 338.294 575.605C342.034 564.139 345.317 552.705 347.894 540.912C353.399 515.721 355.832 490.255 355.832 464.48C330.314 480.209 303.315 488.729 273.259 489.679C243.377 490.624 210.548 488.17 182.173 478.229C169.033 473.625 157.263 467.579 145.997 459.434C141.959 456.515 137.633 449.903 132.333 450.016C126.008 450.152 118.925 452.546 112.644 453.57C100.632 455.528 84.9537 456.633 74.7838 464.063C69.2598 468.099 65.3007 473.748 60.3707 478.398C56.6207 481.936 51.6617 483.857 47.9398 487.395C43.9238 491.212 45.5187 496.199 38.8597 496.508C33.1677 496.771 26.9268 494.481 22.0178 491.793C12.2238 486.43 1.7937 474.983 10.8457 464.119Z" fill="black"/>
<path fill-rule="evenodd" clip-rule="evenodd" d="M104.982 209.031C90.6494 219.212 74.2094 226.167 59.2314 235.336C55.4824 237.631 43.8024 242.396 43.9154 246.653C43.9814 249.142 47.4914 252.263 49.0284 253.988C51.6614 256.943 54.1384 259.929 56.5684 263.055C67.6904 277.37 78.1644 291.82 90.2184 305.416C92.0334 307.461 97.5004 317.226 99.2654 312.376C100.065 310.177 99.4064 307.706 101.491 305.656C102.564 304.6 106.711 304.018 105.503 301.753C104.698 302.115 103.892 302.478 103.086 302.839C103.712 301.029 103.666 299.046 104.604 297.335C105.187 296.272 106.326 295.769 106.721 294.572C107.267 292.918 106.341 290.996 106.496 289.291C106.649 287.591 107.53 285.984 108.056 284.38C111.175 274.872 112.294 265.287 113.891 255.477C115.471 245.77 117.932 236.367 118.898 226.552C119.919 216.185 121.17 205.839 122.839 195.555C119.86 195.973 117.57 199.21 115.463 201.04C112.151 203.916 108.555 206.493 104.982 209.031ZM116.218 309.398C116.902 308.861 117.437 308.201 117.823 307.419C110.798 303.939 115.037 309.876 116.218 309.398ZM120.49 301.976C123.552 302.82 125.752 302.991 128.113 301.731C128.337 301.612 128.079 300.691 128.483 300.502C128.836 300.338 129.375 300.541 129.677 300.387C130.705 299.864 132.505 301.01 132.68 299.008C128.772 297.812 124.929 295.605 120.803 295.233C115.069 294.717 115.334 300.554 120.49 301.976ZM133.906 290.436C138.084 291.413 141.526 293.695 145.965 293.099C150.132 292.541 153.753 290.38 157.04 287.89C148.817 285.562 140.194 285.142 131.978 282.89C129.303 282.157 125.788 280.224 122.905 281.003C119.702 281.869 119.5 284.869 118.54 287.599C123.666 288.521 128.831 289.25 133.906 290.436ZM160.037 278.852C164.051 279.811 168.154 281.908 171.51 278.289C172.052 277.705 172.526 278.288 172.462 276.489C172.395 274.592 170.673 273.37 169.192 272.702C165.71 271.132 160.829 272.147 157.131 271.916C151.232 271.549 145.228 270.323 139.393 269.379C135.353 268.726 131.18 267.276 127.051 267.562C123.863 267.783 120.017 270.5 124.663 272.482C128.894 274.288 135.238 274.011 139.822 274.793C146.598 275.949 153.35 277.254 160.037 278.852ZM163.958 259.968C163.698 260.233 163.438 260.498 163.178 260.763C163.221 260.753 161.639 259.472 161.22 259.435C159.185 259.258 157.138 259.398 155.1 259.283C150.404 259.018 145.671 258.2 141.059 257.299C137.302 256.565 133.475 255.3 129.608 255.617C126.26 255.891 125.908 256.577 125.689 259.808C134.235 259.808 143.038 259.628 151.437 261.437C156.905 262.614 162.931 266.12 165.67 259.8C165.099 259.856 164.529 259.912 163.958 259.968ZM158.615 246.289C156.496 247.903 150.719 245.219 148.179 244.951C145.421 244.659 142.826 244.356 140.153 243.669C137.783 243.059 129.942 240.013 128.124 242.926C125.337 247.389 136.622 248.208 138.411 248.429C145.914 249.356 153.699 250.178 161 252.146C160.205 250.194 159.41 248.242 158.615 246.289ZM148.323 231.13C147.775 233.193 130.807 225.591 130.498 231.116C130.26 235.355 147.286 237.467 150.347 237.095C149.63 235.143 147.723 233.395 148.323 231.13ZM142.626 218.163C142.265 214.002 141.707 214.026 138.37 213.634C135.825 213.335 132.327 211.843 132.989 216.379C133.556 220.263 142.989 222.362 142.626 218.163ZM136.561 203.846C135.758 201.612 133.951 204.619 133.913 205.755C133.812 208.778 136.104 208.124 138.31 208.124C137.696 206.712 137.112 205.284 136.561 203.846ZM108.634 187.077C109.084 186.535 111.61 186.328 112.329 186.065C114.097 185.417 113.846 184.036 116.108 185.398C116.221 185.284 116.006 184.26 116.129 184.213C116.191 184.189 117.776 183.591 118.291 183.261C119.534 182.465 120.654 181.686 121.796 180.687C123.01 179.626 124.226 178.086 125.613 177.241C126.198 176.885 126.676 176.38 127.381 176.271C129.21 175.989 128.686 177.263 130.285 177.516C131.27 177.672 131.987 176.522 133.275 177.018C134.388 177.446 135.034 179.007 135.53 179.936C137.333 183.317 138.724 186.956 140.489 190.373C149.515 207.846 159.774 224.656 168.517 242.292C172.728 250.788 177.122 259.343 180.086 268.372C182.223 274.884 187.049 284.397 182.897 290.904C179.878 295.635 173.833 297.678 169.01 299.964C161.753 303.404 155.063 307.9 147.726 311.235C138.977 315.212 130.481 319.372 121.953 323.813C118.316 325.707 115.034 328.435 111.409 330.229C109.192 331.326 105.768 329.454 105.046 331.969C102.267 328.603 97.7694 330.847 94.5544 328.477C92.6634 327.083 91.2814 324.337 89.7044 322.62C87.3384 320.046 84.7704 317.658 82.3564 315.129C72.7754 305.084 63.9284 294.622 55.2114 283.833C46.8854 273.53 37.1584 263.796 30.1254 252.518C27.3324 248.041 26.8264 243.346 28.6694 238.4C30.0154 234.792 33.2574 229.344 37.8884 231.733C36.1324 228.817 42.9064 225.703 44.9614 225.133C44.9924 225.125 45.3974 227.365 45.9704 227.309C45.7664 227.329 47.6924 222.346 48.5384 221.707C51.0504 219.806 54.1064 217.588 56.8474 216.023C59.3614 214.588 62.0144 213.877 64.4494 212.271C67.4014 210.325 70.1114 208.017 73.0744 206.084C75.9354 204.218 79.1244 202.012 82.2864 200.729C85.0284 199.616 87.4904 199.398 89.9574 197.574C93.0094 195.317 95.6714 193.786 99.1914 192.231C102.236 190.886 106.456 189.711 108.634 187.077Z" fill="black"/>
<path fill-rule="evenodd" clip-rule="evenodd" d="M524.291 457.32C523.731 456.005 523.173 454.69 522.613 453.376C521.921 455.668 521.727 456.808 524.291 457.32ZM523.546 463.394C524.759 463.611 524.281 459.806 524.281 459.143C522.186 460.329 523.921 461.751 523.546 463.394ZM525.437 452.417C524.403 451.806 523.369 451.196 522.335 450.585C523.775 453.253 523.21 451.586 522.616 453.368C523.702 453.68 524.758 453.316 525.437 452.417ZM531.565 473.269C535.441 487.332 547.752 498.423 560.755 504.168C568.227 507.468 575.573 508.294 583.642 507.926C586.754 507.784 590.416 506.773 593.411 506.961C595.717 507.106 595.613 507.206 597.523 509.158C598.368 507.602 597.756 506.51 599.451 505.604C601.566 504.474 602.444 505.79 603.493 507.355C604.866 505.932 605.428 505.189 607.207 504.344C607.151 504.371 608.91 504.304 608.838 504.326C609.156 504.228 611.069 502.998 611.668 502.774C614.126 501.852 616.968 501.473 619.236 500.15C621.22 498.995 622.854 495.752 625.124 498.244C625.126 494.08 630.735 492.353 633.364 490.172C637.472 486.764 640.738 481.718 642.786 476.837C644.97 471.632 645.699 466.642 646.721 461.278C647.435 457.53 652.111 452.112 649.303 448.33C648.634 449.916 648.948 451.54 647.837 452.978C646.837 451.051 646.287 448.895 645.835 446.786C645.613 445.753 644.327 442.721 644.473 441.821C644.77 439.979 647.05 439.879 645.786 437.621C643.164 440.474 641.048 435.464 643.029 433.467C644.007 434.57 644.366 435.823 644.817 437.189C647.395 431.985 640.26 433.661 641.821 428.963C639.217 428.462 637.72 427.806 636.73 425.233C635.629 422.37 636.439 421.746 633.939 419.854C633.079 419.204 630.647 418.269 630.202 417.199C629.341 415.132 631.532 414.519 629.613 412.582C628.965 413.719 626.439 415.97 625.056 413.828C624.779 413.401 625.942 413.098 625.096 412.114C623.843 410.658 622.441 409.23 620.322 409.536C622 405.341 611.278 405.009 608.532 404.019C605.78 403.028 603.445 402.377 600.527 402.147C597.612 401.917 597.467 401.063 594.999 399.308C594.79 401.819 594.186 401.267 592.401 401.71C591.972 400.974 591.532 400.891 591.082 401.462C590.634 401.888 590.086 402.088 589.44 402.064C588.46 402.115 587.348 401.987 586.321 402.008C583.91 402.055 581.423 401.854 579.058 401.905C578.448 401.803 577.878 401.591 577.344 401.268C577.121 401.688 576.897 402.109 576.675 402.53C575.422 402.687 575.325 404.257 573.784 402.54C573.328 404.723 572.018 403.587 570.634 404.179C569.372 404.72 569.171 405.584 568.006 406.187C567.24 406.808 566.419 406.89 565.541 406.435C564.706 407.054 563.858 407.655 562.998 408.238C561.413 409.133 559.545 409.681 557.875 410.388C556.764 410.846 555.66 411.323 554.565 411.817C554.532 413.139 553.939 413.606 552.787 413.217C551.746 414.088 551.453 414.054 550.443 415.537C548.155 418.898 546.125 421.509 543.235 424.513C530.674 437.573 526.815 456.037 531.565 473.269ZM527.71 417.735C533.381 410.141 541.408 401.445 548.621 396.649C552.277 394.217 557.409 389.852 561.88 388.566C562.94 388.261 564.037 388.241 565.079 387.921C565.884 387.674 566.322 386.848 567.24 386.699C567.882 386.595 567.953 388.032 568.635 387.9C570.061 387.622 570.965 386.207 571.972 385.322C574.135 389.049 575.309 382.781 578.485 386.995C582.265 381.068 591.145 382.364 597.181 382.663C598.971 382.751 599.812 383.388 601.399 383.86C602.876 384.299 603.022 384.186 604.635 384.174C608.652 384.143 612.218 384.648 615.931 386.412C622.169 389.375 627.895 393.992 633.82 397.563C640.442 401.554 646.411 406.634 651.477 412.471C669.791 433.577 674.688 464.384 660.085 488.852C636.89 527.713 577.059 531.866 543.156 505.498C516.963 485.125 506.995 445.469 527.71 417.735Z" fill="black"/>
<path fill-rule="evenodd" clip-rule="evenodd" d="M240.621 308.378C241.272 309.931 247.351 309.408 247.484 307.577C247.682 304.841 239.49 305.679 240.621 308.378ZM234.164 307.362C230.719 307.642 225.059 309.982 221.739 308.568C216.672 306.41 221.993 303.098 224.711 302.108C227.477 301.101 231.597 301.636 233.019 298.744C234.089 296.569 231.445 290.497 234.725 291.473C238.167 292.497 237.166 301.195 242.567 298.263C245.143 296.864 244.092 288.342 248.407 292.696C249.588 293.887 249.691 296.073 251.255 296.961C252.851 297.868 254.853 296.924 256.538 297.003C260.999 297.212 262.42 301.385 257.9 303.04C256.227 303.653 249.921 304.401 253.741 307.135C256.148 308.857 261.495 305.243 263.562 308.241C266.403 312.359 258.793 312.452 256.749 313.684C253.285 315.77 256.146 320.642 255.87 324.112C255.447 329.414 252.367 328.306 251.248 323.819C250.299 320.013 251.475 314.533 245.736 316.046C236.39 318.51 250.933 330.375 244.087 333.411C239.722 335.347 239.104 324.882 238.765 323.08C237.51 316.429 233.774 317.981 228.114 318.185C221.502 318.423 219.906 313.532 226.908 312.131C229.142 311.684 232.215 312.249 234.155 310.826C235.303 309.985 236.881 307.142 234.164 307.362Z" fill="black"/>
<path fill-rule="evenodd" clip-rule="evenodd" d="M478.289 524.656C483.64 522.74 492.592 523.154 493.916 530.065C494.47 532.958 493.391 536.018 491.393 538.12C489.076 540.557 485.386 540.783 485.583 536.539C485.72 533.602 488.515 531.051 483.601 530.459C480.543 530.091 476.02 532.378 475.868 535.756C475.524 543.37 488.704 543.967 493.561 542.65C503.201 540.038 500.582 529.941 493.962 525.333C492.252 524.142 487.345 522.308 487.121 519.835C486.823 516.555 490.879 517.225 492.867 517.657C507.48 520.838 510.665 545.318 495.396 549.933C488.462 552.028 478.697 549.865 474.518 543.585C470.6 537.697 470.547 527.428 478.289 524.656Z" fill="black"/>
<path fill-rule="evenodd" clip-rule="evenodd" d="M672.043 351.36C676.611 353.559 681.179 355.758 685.746 357.957C687.256 354.726 689.807 345.899 693.637 344.772C699.837 342.947 695.889 352.569 694.819 354.769C693.94 356.576 691.901 359.376 692.396 361.53C693.06 364.432 697.154 365.46 699.297 366.957C704.6 370.663 704.558 378.446 696.878 375.148C692.532 373.281 687.151 368.104 683.82 373.982C682.282 376.694 678.638 391.846 674.832 381.937C672.477 375.802 683.812 369.428 678.224 364.238C676.425 362.568 674.319 362.427 672.522 361.467C668.182 359.148 670.629 354.863 672.043 351.36Z" fill="black"/>
<path fill-rule="evenodd" clip-rule="evenodd" d="M2.35635 131.82C5.07935 130.824 8.44837 128.879 11.4754 129.542C14.6924 130.246 15.9874 133.468 18.3264 135.405C24.6854 140.672 28.3894 132.822 31.8834 128.52C35.1834 124.458 39.2094 123.472 43.8654 125.968C45.7204 126.963 53.5354 131.522 52.1724 134.443C51.1924 136.545 47.3314 134.658 46.0144 134.199C43.1554 133.204 40.5004 132.333 37.5764 133.784C32.0914 136.504 30.6684 143.963 24.0324 145.126C17.1704 146.329 16.9454 139.799 12.0484 137.341C8.76537 135.694 6.47837 138.61 3.31137 138.029C0.293369 137.476 -1.10265 133.084 2.35635 131.82Z" fill="black"/>
<path fill-rule="evenodd" clip-rule="evenodd" d="M57.7558 158.137C55.3288 158.664 53.7447 153.957 52.2257 152.763C49.7057 150.784 45.3368 150.385 42.7708 152.377C37.7598 156.265 39.4868 164.659 32.3518 166.847C25.9748 168.803 22.9708 160.404 17.6028 158.313C14.4818 157.097 11.0558 156.301 12.2738 151.938C13.1148 148.921 15.5928 148.146 18.2868 149.305C22.9168 151.295 24.4888 159.402 29.9778 159.547C35.6568 159.697 36.2728 151.51 38.7108 147.944C42.4278 142.509 50.0687 141.196 54.4107 146.393C55.7217 147.961 62.3778 157.136 57.7558 158.137Z" fill="black"/>
<path fill-rule="evenodd" clip-rule="evenodd" d="M170.013 65.3265C166.637 67.6365 159.909 67.5565 156.799 64.6915C153.634 61.7765 157.859 61.3285 160.437 61.4175C162.42 61.4865 166.132 62.4695 165.002 59.0445C163.999 56.0055 158.486 57.5525 158.026 54.2165C162.175 53.4725 166.745 53.7405 169.814 57.0015C172.033 59.3585 173.173 63.1635 170.013 65.3265Z" fill="black"/>
</svg>
