<svg width="51" height="50" viewBox="0 0 51 50" fill="none" xmlns="http://www.w3.org/2000/svg">
<g clip-path="url(#clip0_101_150)">
<path d="M0.320312 0H50.3203V50H0.320312V0Z" fill="#F0DB4F"/>
<path d="M46.2281 38.0751C45.8621 35.7938 44.3745 33.8784 39.9686 32.0913C38.4381 31.3879 36.7319 30.8841 36.2233 29.7244C36.0427 29.0495 36.0189 28.6692 36.133 28.2605C36.461 26.9344 38.0437 26.5209 39.2984 26.9012C40.1064 27.1721 40.8716 27.7947 41.3326 28.788C43.4904 27.3908 43.4857 27.4002 44.9923 26.4402C44.441 25.5847 44.1463 25.1901 43.7851 24.8242C42.4876 23.3746 40.7195 22.6284 37.8916 22.6854C37.402 22.7472 36.9078 22.8137 36.4182 22.8755C35.0066 23.232 33.6615 23.9734 32.8726 24.9668C30.5056 27.6522 31.1805 32.3527 34.0608 34.2872C36.8982 36.4164 41.0665 36.9012 41.5988 38.8927C42.1169 41.3309 39.807 42.1198 37.5113 41.8395C35.8193 41.4877 34.8783 40.6275 33.8612 39.0638C31.9886 40.1474 31.9886 40.1474 30.0637 41.2549C30.5199 42.253 30.9999 42.7045 31.7652 43.5695C35.3869 47.2435 44.4505 47.0629 46.076 41.502C46.1425 41.3118 46.5798 40.0381 46.2281 38.0751ZM27.5018 22.98H22.825C22.825 27.02 22.8061 31.0314 22.8061 35.0713C22.8061 37.6426 22.9391 40 22.5209 40.7225C21.8365 42.1435 20.0637 41.9677 19.2557 41.692C18.4334 41.288 18.0152 40.7129 17.5304 39.9002C17.3973 39.6674 17.2975 39.4867 17.2642 39.4725C15.9952 40.2472 14.7309 41.0266 13.4619 41.8014C14.0941 43.0989 15.0256 44.2253 16.2186 44.9572C18.0009 46.0266 20.3963 46.3546 22.9011 45.7795C24.5314 45.3042 25.9381 44.3204 26.6748 42.8233C27.7395 40.8603 27.5113 38.4839 27.5018 35.8556C27.5256 31.5685 27.5018 27.2814 27.5018 22.98Z" fill="#323330"/>
</g>
<defs>
<clipPath id="clip0_101_150">
<rect width="50" height="50" fill="white" transform="translate(0.320312)"/>
</clipPath>
</defs>
</svg>
