<svg width="46" height="50" viewBox="0 0 46 50" fill="none" xmlns="http://www.w3.org/2000/svg">
<path d="M21.1051 0.53343C22.3448 -0.176206 23.9596 -0.179412 25.1983 0.53343C31.4301 4.05472 37.6639 7.57049 43.8946 11.0939C45.0665 11.754 45.8504 13.0583 45.8385 14.4086V35.5941C45.8472 37.0003 44.9859 38.3357 43.7495 38.9809C37.5382 42.4828 31.3301 45.9889 25.1198 49.4908C23.8544 50.2143 22.2072 50.1586 20.9813 49.3758C19.1192 48.2963 17.2538 47.2221 15.3915 46.1437C15.0109 45.9168 14.5819 45.7363 14.3132 45.3673C14.5508 45.0471 14.9755 45.0072 15.3206 44.8674C16.0979 44.6202 16.8118 44.2235 17.5259 43.8385C17.7065 43.7149 17.9269 43.7623 18.1 43.8729C19.6924 44.7859 21.2707 45.7254 22.8684 46.6297C23.2092 46.8264 23.5543 46.5652 23.8457 46.4028C29.9409 42.9579 36.0436 39.526 42.1377 36.08C42.3635 35.9714 42.4883 35.7317 42.47 35.4844C42.4743 28.4958 42.4711 21.5059 42.4721 14.5173C42.498 14.2366 42.3356 13.9786 42.0818 13.8637C35.892 10.3779 29.7055 6.88667 23.5168 3.39993C23.4095 3.32622 23.2825 3.28666 23.1524 3.28647C23.0223 3.28628 22.8952 3.32546 22.7877 3.39886C16.599 6.88667 10.4135 10.3811 4.22482 13.8667C3.97195 13.9818 3.80224 14.2355 3.83234 14.5173C3.8334 21.5059 3.83234 28.4958 3.83234 35.4854C3.8216 35.6061 3.84811 35.7272 3.90829 35.8324C3.96846 35.9375 4.05942 36.0217 4.1689 36.0736C5.82038 37.0101 7.47401 37.9401 9.12656 38.8734C10.0575 39.3745 11.2006 39.6722 12.2263 39.2883C13.1315 38.9636 13.766 38.04 13.7487 37.0789C13.7573 30.131 13.7444 23.1821 13.7551 16.2353C13.7325 15.9269 14.0251 15.6721 14.325 15.7011C15.1185 15.6958 15.9131 15.6904 16.7066 15.7033C17.0378 15.6958 17.2657 16.0279 17.2248 16.3386C17.2216 23.3305 17.2333 30.3225 17.2194 37.3143C17.2216 39.1777 16.456 41.2053 14.7324 42.117C12.609 43.217 9.98453 42.9837 7.88679 41.929C6.07076 41.0226 4.33772 39.9529 2.55392 38.9818C1.31433 38.3402 0.457248 36.9995 0.465974 35.5942V14.4086C0.452974 13.0303 1.26803 11.7024 2.47646 11.0519C8.68671 7.54716 14.8959 4.03976 21.1051 0.53343Z" fill="#8CC84B"/>
<path d="M26.5229 15.2088C29.2314 15.0344 32.131 15.1055 34.5684 16.4398C36.4555 17.4623 37.5017 19.6083 37.535 21.7048C37.4822 21.9876 37.1866 22.1436 36.9167 22.1242C36.1308 22.1231 35.3448 22.1349 34.5589 22.1189C34.2256 22.1317 34.0318 21.8243 33.99 21.5296C33.7642 20.5265 33.2171 19.533 32.273 19.0492C30.8236 18.3235 29.1431 18.36 27.5627 18.3751C26.4089 18.4364 25.1682 18.5363 24.1908 19.2148C23.4404 19.7287 23.2124 20.7662 23.4802 21.6017C23.7328 22.2017 24.4253 22.3952 24.9919 22.5737C28.2561 23.4274 31.7151 23.3424 34.9169 24.4659C36.2425 24.9239 37.5392 25.8143 37.993 27.2022C38.5865 29.0624 38.3263 31.2859 37.0029 32.7792C35.9296 34.0082 34.3664 34.677 32.8074 35.0403C30.7333 35.5027 28.5809 35.5145 26.4746 35.3092C24.494 35.0834 22.433 34.563 20.904 33.2136C19.5966 32.0783 18.958 30.3095 19.0214 28.6023C19.0365 28.314 19.3236 28.1129 19.5998 28.1366C20.3912 28.1302 21.1825 28.1281 21.9739 28.1377C22.29 28.1151 22.5243 28.3882 22.5405 28.6861C22.6866 29.6419 23.0457 30.645 23.8791 31.2116C25.4875 32.2493 27.5057 32.1782 29.3473 32.2073C30.8731 32.1396 32.5858 32.1191 33.831 31.1107C34.4879 30.5355 34.6825 29.5731 34.505 28.7453C34.3127 28.0463 33.5815 27.7206 32.9536 27.5076C29.7313 26.4883 26.2337 26.8582 23.0425 25.7055C21.747 25.2477 20.4943 24.382 19.9965 23.0511C19.302 21.1674 19.6203 18.8374 21.0824 17.3945C22.5081 15.9592 24.5662 15.4064 26.5229 15.2086V15.2088Z" fill="#8CC84B"/>
</svg>
