<svg width="57" height="50" viewBox="0 0 57 50" fill="none" xmlns="http://www.w3.org/2000/svg">
<path d="M56.4659 25.0057C56.4659 21.2863 51.8081 17.7615 44.6669 15.5756C46.3148 8.29709 45.5824 2.50629 42.3551 0.652323C41.6112 0.217441 40.7415 0.0114441 39.7916 0.0114441V2.56352C40.318 2.56352 40.7415 2.66651 41.0962 2.86107C42.6527 3.75372 43.3279 7.15267 42.8014 11.5244C42.6755 12.6001 42.4695 13.7331 42.2178 14.889C39.9747 14.3397 37.5256 13.9162 34.9507 13.6416C33.4057 11.5244 31.8035 9.60174 30.1899 7.91943C33.9207 4.45182 37.4226 2.55207 39.803 2.55207V0C36.6559 0 32.5359 2.24308 28.3702 6.13413C24.2045 2.26597 20.0846 0.0457772 16.9374 0.0457772V2.59785C19.3064 2.59785 22.8197 4.48615 26.5506 7.93088C24.9484 9.61318 23.3462 11.5244 21.8241 13.6416C19.2377 13.9162 16.7886 14.3397 14.5455 14.9004C14.2823 13.756 14.0878 12.6459 13.9504 11.5816C13.4126 7.20989 14.0763 3.81094 15.6213 2.90684C15.9646 2.70085 16.411 2.60929 16.9374 2.60929V0.0572213C15.9761 0.0572213 15.1063 0.263218 14.351 0.6981C11.1351 2.55207 10.4142 8.33143 12.0736 15.5871C4.95524 17.7844 0.320312 21.2978 0.320312 25.0057C0.320312 28.7251 4.97813 32.2499 12.1194 34.4358C10.4714 41.7143 11.2038 47.5051 14.4311 49.3591C15.175 49.794 16.0447 50 17.0061 50C20.1532 50 24.2732 47.7569 28.4389 43.8659C32.6046 47.734 36.7245 49.9542 39.8717 49.9542C40.833 49.9542 41.7028 49.7482 42.4581 49.3133C45.6739 47.4594 46.3949 41.68 44.7355 34.4244C51.831 32.2385 56.4659 28.7137 56.4659 25.0057ZM41.5654 17.3724C41.142 18.8487 40.6156 20.3708 40.0205 21.8929C39.5513 20.9773 39.0592 20.0618 38.5213 19.1463C37.9948 18.2307 37.4341 17.3381 36.8733 16.4683C38.4984 16.7086 40.0662 17.0062 41.5654 17.3724ZM36.324 29.5605C35.4313 31.1055 34.5158 32.5704 33.5659 33.9323C31.8607 34.081 30.1326 34.1611 28.3931 34.1611C26.665 34.1611 24.9369 34.081 23.2432 33.9437C22.2933 32.5818 21.3663 31.1284 20.4737 29.5949C19.6039 28.0957 18.8142 26.5736 18.0933 25.0401C18.8028 23.5065 19.6039 21.973 20.4622 20.4738C21.3549 18.9288 22.2704 17.4639 23.2203 16.1021C24.9255 15.9533 26.6536 15.8732 28.3931 15.8732C30.1212 15.8732 31.8493 15.9533 33.543 16.0906C34.4929 17.4525 35.4199 18.9059 36.3125 20.4395C37.1823 21.9387 37.972 23.4607 38.6929 24.9943C37.972 26.5278 37.1823 28.0613 36.324 29.5605ZM40.0205 28.0728C40.6385 29.6063 41.1649 31.1398 41.5998 32.6276C40.1006 32.9938 38.5213 33.3028 36.8847 33.5431C37.4455 32.6619 38.0063 31.7578 38.5327 30.8309C39.0592 29.9153 39.5513 28.9883 40.0205 28.0728ZM28.416 40.2838C27.3517 39.1852 26.2874 37.9606 25.2345 36.6217C26.2645 36.6674 27.3173 36.7018 28.3817 36.7018C29.4574 36.7018 30.5217 36.6789 31.5632 36.6217C30.5332 37.9606 29.4689 39.1852 28.416 40.2838ZM19.9015 33.5431C18.2764 33.3028 16.7085 33.0053 15.2093 32.639C15.6327 31.1627 16.1592 29.6406 16.7543 28.1186C17.2235 29.0341 17.7156 29.9496 18.2535 30.8652C18.7914 31.7807 19.3407 32.6734 19.9015 33.5431ZM28.3588 9.72763C29.4231 10.8263 30.4874 12.0508 31.5403 13.3898C30.5103 13.344 29.4574 13.3097 28.3931 13.3097C27.3173 13.3097 26.253 13.3326 25.2116 13.3898C26.2416 12.0508 27.3059 10.8263 28.3588 9.72763ZM19.89 16.4683C19.3292 17.3495 18.7685 18.2536 18.242 19.1806C17.7156 20.0961 17.2235 21.0117 16.7543 21.9272C16.1363 20.3937 15.6099 18.8602 15.175 17.3724C16.6742 17.0176 18.2535 16.7086 19.89 16.4683ZM9.53295 30.7965C5.48168 29.0684 2.86094 26.8025 2.86094 25.0057C2.86094 23.209 5.48168 20.9316 9.53295 19.2149C10.5172 18.7915 11.5929 18.4138 12.703 18.0591C13.3553 20.3021 14.2137 22.6368 15.278 25.0286C14.2251 27.409 13.3782 29.7322 12.7373 31.9638C11.6044 31.6091 10.5286 31.22 9.53295 30.7965ZM15.69 47.1504C14.1335 46.2577 13.4583 42.8588 13.9848 38.4871C14.1107 37.4113 14.3167 36.2783 14.5684 35.1225C16.8115 35.6718 19.2606 36.0952 21.8355 36.3699C23.3805 38.4871 24.9827 40.4097 26.5963 42.092C22.8655 45.5596 19.3636 47.4594 16.9832 47.4594C16.4682 47.4479 16.0333 47.3449 15.69 47.1504ZM42.8358 38.4298C43.3736 42.8016 42.7099 46.2005 41.1649 47.1046C40.8216 47.3106 40.3752 47.4022 39.8488 47.4022C37.4798 47.4022 33.9665 45.5138 30.2356 42.0691C31.8378 40.3868 33.44 38.4756 34.9621 36.3584C37.5485 36.0838 39.9976 35.6603 42.2407 35.0996C42.5039 36.2554 42.7099 37.3655 42.8358 38.4298ZM47.2418 30.7965C46.2576 31.22 45.1818 31.5976 44.0717 31.9524C43.4194 29.7093 42.5611 27.3747 41.4968 24.9828C42.5497 22.6024 43.3965 20.2792 44.0374 18.0476C45.1704 18.4024 46.2462 18.7915 47.2533 19.2149C51.3045 20.943 53.9253 23.209 53.9253 25.0057C53.9138 26.8025 51.2931 29.0799 47.2418 30.7965Z" fill="#61DAFB"/>
<path d="M28.3816 30.2358C31.2701 30.2358 33.6117 27.8942 33.6117 25.0057C33.6117 22.1173 31.2701 19.7757 28.3816 19.7757C25.4932 19.7757 23.1516 22.1173 23.1516 25.0057C23.1516 27.8942 25.4932 30.2358 28.3816 30.2358Z" fill="#61DAFB"/>
</svg>
